<svg width="20" height="20" viewBox="0 0 20 20" fill="none" xmlns="http://www.w3.org/2000/svg">
<path d="M10 0C8.02219 0 6.08879 0.58649 4.4443 1.6853C2.79981 2.78412 1.51809 4.3459 0.761209 6.17316C0.00433284 8.00042 -0.1937 10.0111 0.192152 11.9509C0.578004 13.8907 1.53041 15.6725 2.92894 17.0711C4.32746 18.4696 6.10929 19.422 8.0491 19.8078C9.98891 20.1937 11.9996 19.9957 13.8268 19.2388C15.6541 18.4819 17.2159 17.2002 18.3147 15.5557C19.4135 13.9112 20 11.9778 20 10C19.9949 7.34939 18.9397 4.80881 17.0655 2.93455C15.1912 1.06028 12.6506 0.00508267 10 0ZM14.5577 10.2981C14.5158 10.3913 14.4571 10.476 14.3846 10.5481L11.125 13.8077C11.0552 13.8795 10.9714 13.9362 10.8787 13.9742C10.7861 14.0122 10.6867 14.0308 10.5865 14.0288C10.485 14.031 10.384 14.0125 10.2898 13.9745C10.1956 13.9365 10.1101 13.8798 10.0385 13.8077C9.89461 13.6635 9.81382 13.4681 9.81382 13.2644C9.81382 13.0607 9.89461 12.8654 10.0385 12.7212L11.9904 10.7692H6.15385C5.94984 10.7692 5.75418 10.6882 5.60992 10.5439C5.46566 10.3997 5.38462 10.204 5.38462 10C5.38462 9.79599 5.46566 9.60033 5.60992 9.45607C5.75418 9.31181 5.94984 9.23077 6.15385 9.23077H11.9904L10.0385 7.27884C9.90588 7.13252 9.83464 6.94081 9.8395 6.74341C9.84436 6.54601 9.92495 6.35804 10.0646 6.21842C10.2042 6.07879 10.3922 5.99821 10.5896 5.99335C10.787 5.98849 10.9787 6.05972 11.125 6.19231L14.3846 9.45192C14.4571 9.52398 14.5158 9.60871 14.5577 9.70192C14.6347 9.89318 14.6347 10.1068 14.5577 10.2981Z" fill="#333333"/>
</svg>
