<svg width="51" height="50" viewBox="0 0 51 50" fill="none" xmlns="http://www.w3.org/2000/svg">
<circle cx="25.5" cy="25" r="25" fill="#DFDBDB"/>
<path d="M26 18V20" stroke="#777777" stroke-width="1.5" stroke-linecap="round" stroke-linejoin="round"/>
<path d="M26 30V32" stroke="#777777" stroke-width="1.5" stroke-linecap="round" stroke-linejoin="round"/>
<path d="M26 37C32.6274 37 38 31.6274 38 25C38 18.3726 32.6274 13 26 13C19.3726 13 14 18.3726 14 25C14 31.6274 19.3726 37 26 37Z" stroke="#777777" stroke-width="1.5" stroke-linecap="round" stroke-linejoin="round"/>
<path d="M23 30H27.5C28.163 30 28.7989 29.7366 29.2678 29.2678C29.7366 28.7989 30 28.163 30 27.5C30 26.837 29.7366 26.2011 29.2678 25.7322C28.7989 25.2634 28.163 25 27.5 25H24.5C23.837 25 23.2011 24.7366 22.7322 24.2678C22.2634 23.7989 22 23.163 22 22.5C22 21.837 22.2634 21.2011 22.7322 20.7322C23.2011 20.2634 23.837 20 24.5 20H29" stroke="#777777" stroke-width="1.5" stroke-linecap="round" stroke-linejoin="round"/>
</svg>
