<svg width="23" height="23" viewBox="0 0 23 23" fill="none" xmlns="http://www.w3.org/2000/svg">
<path d="M11.5002 11.5C12.0272 11.5 12.4786 11.3122 12.8543 10.9365C13.23 10.5609 13.4175 10.1098 13.4168 9.58335C13.4168 9.05627 13.229 8.6049 12.8533 8.22923C12.4777 7.85356 12.0266 7.66605 11.5002 7.66669C10.9731 7.66669 10.5217 7.85452 10.146 8.23019C9.77037 8.60585 9.58286 9.05691 9.5835 9.58335C9.5835 10.1104 9.77133 10.5618 10.147 10.9375C10.5227 11.3131 10.9737 11.5007 11.5002 11.5ZM11.5002 18.5438C13.4488 16.7549 14.8943 15.1295 15.8366 13.6678C16.779 12.206 17.2502 10.9084 17.2502 9.77502C17.2502 8.03405 16.695 6.60869 15.5846 5.49894C14.4742 4.38919 13.1127 3.83399 11.5002 3.83335C9.88697 3.83335 8.52518 4.38855 7.41479 5.49894C6.3044 6.60933 5.74952 8.03469 5.75016 9.77502C5.75016 10.909 6.22134 12.207 7.1637 13.6687C8.10607 15.1305 9.55155 16.7555 11.5002 18.5438ZM11.5002 21.0834C8.92864 18.8952 7.00814 16.8629 5.73866 14.9864C4.46919 13.11 3.83413 11.3729 3.8335 9.77502C3.8335 7.37919 4.60432 5.47051 6.14595 4.04898C7.68759 2.62745 9.47233 1.91669 11.5002 1.91669C13.5286 1.91669 15.3137 2.62745 16.8553 4.04898C18.397 5.47051 19.1675 7.37919 19.1668 9.77502C19.1668 11.3722 18.5318 13.1094 17.2617 14.9864C15.9916 16.8635 14.0711 18.8958 11.5002 21.0834Z" fill="#333333"/>
</svg>
