<svg width="204" height="31" viewBox="0 0 204 31" fill="none" xmlns="http://www.w3.org/2000/svg">
<path fill-rule="evenodd" clip-rule="evenodd" d="M28.0658 4.88101C28.2231 4.97391 28.3451 5.10944 28.4319 5.28776C28.5975 5.70298 28.7466 6.12331 28.8793 6.54869C28.386 7.06755 27.8165 7.50139 27.171 7.8503C26.5625 8.33669 25.9659 8.8383 25.3813 9.35528C25.2584 8.5369 25.0686 7.73698 24.8118 6.95544C25.888 6.24168 26.9727 5.5502 28.0658 4.88101Z" fill="#777777"/>
<path fill-rule="evenodd" clip-rule="evenodd" d="M9.43667 4.88101C10.5057 5.45616 11.5362 6.09346 12.528 6.79274C12.6051 6.83204 12.6864 6.84554 12.772 6.83342C12.5656 7.68931 12.4165 8.55699 12.3246 9.43663C11.2172 8.46295 10.0512 7.56809 8.82654 6.75207C8.88731 6.0867 9.09068 5.46299 9.43667 4.88101Z" fill="#777777"/>
<path fill-rule="evenodd" clip-rule="evenodd" d="M18.7919 0C21.292 2.44962 22.9054 5.40532 23.6323 8.86718C23.776 9.51213 23.8303 10.1629 23.795 10.8196C23.3855 11.2019 23.0059 11.6086 22.6561 12.0398C22.1266 11.1979 21.5572 10.3844 20.9477 9.59934C20.3013 8.84449 19.5963 8.13942 18.8326 7.48423C17.2888 8.78543 16.0144 10.304 15.0091 12.0398C14.6593 11.6086 14.2798 11.2019 13.8702 10.8196C14.1908 6.60003 15.8314 2.99345 18.7919 0Z" fill="#777777"/>
<path fill-rule="evenodd" clip-rule="evenodd" d="M32.4588 6.83344C32.5944 6.83344 32.7299 6.83344 32.8655 6.83344C33.1097 8.30767 33.0419 9.77197 32.6622 11.2264C31.9736 11.4222 31.2821 11.612 30.5877 11.7958C30.5799 11.3323 30.5392 10.8713 30.4657 10.4128C30.3141 9.56388 30.1514 8.7232 29.9776 7.89099C30.7891 7.48106 31.6162 7.12857 32.4588 6.83344Z" fill="#777777"/>
<path fill-rule="evenodd" clip-rule="evenodd" d="M4.79968 6.83344C5.78752 7.07244 6.73663 7.42493 7.64694 7.89099C7.67403 7.95875 7.7012 8.0266 7.72829 8.09436C7.3662 9.33097 7.12215 10.5919 6.99614 11.8772C6.34818 11.6024 5.68388 11.3855 5.00306 11.2264C4.63153 9.77344 4.56377 8.30913 4.79968 6.83344Z" fill="#777777"/>
<path fill-rule="evenodd" clip-rule="evenodd" d="M28.3099 9.1926C28.4572 9.34594 28.5521 9.53581 28.5946 9.76205C29.3422 13.2445 28.9355 16.5799 27.3743 19.7681C26.4291 21.3371 25.1817 22.6116 23.6322 23.5916C24.9997 20.3586 24.9862 17.1181 23.5916 13.8702C24.2037 12.9591 24.9087 12.1185 25.7067 11.3484C26.5652 10.6089 27.4328 9.89026 28.3099 9.1926Z" fill="#555555"/>
<path fill-rule="evenodd" clip-rule="evenodd" d="M9.19255 9.27393C11.0721 10.4613 12.6855 11.9528 14.0329 13.7482C14.0872 13.8566 14.0872 13.9652 14.0329 14.0736C12.6836 17.2567 12.6836 20.4293 14.0329 23.5916C10.379 21.0974 8.60276 17.6129 8.70445 13.1381C8.71055 11.8284 8.87325 10.5403 9.19255 9.27393Z" fill="#555555"/>
<path fill-rule="evenodd" clip-rule="evenodd" d="M18.7919 9.84338C21.3232 12.2627 22.7333 15.2319 23.0222 18.7512C22.9523 21.7461 21.7863 24.2138 19.5241 26.1541C19.313 26.3342 19.0825 26.4833 18.8326 26.6015C16.1314 24.7386 14.7619 22.149 14.7244 18.8326C14.8386 16.2121 15.6657 13.8394 17.2056 11.7144C17.721 11.0772 18.2497 10.4535 18.7919 9.84338Z" fill="#555555"/>
<path fill-rule="evenodd" clip-rule="evenodd" d="M7.72828 18.0598C7.7404 18.1454 7.7269 18.2267 7.6876 18.3038C6.933 18.015 6.18726 17.6896 5.45047 17.3276C5.42338 17.3547 5.39621 17.3819 5.36912 17.409C5.86698 18.4334 6.50428 19.3554 7.28085 20.1749C7.46112 20.3643 7.6645 20.5135 7.89098 20.6223C7.84575 20.6535 7.81866 20.6941 7.80963 20.7443C7.10326 20.7944 6.3982 20.8351 5.69452 20.8664C2.58084 18.9677 0.682692 16.2154 0 12.6093C2.46345 12.405 4.79552 12.8525 6.99613 13.9516C7.11262 15.342 7.35667 16.7115 7.72828 18.0598Z" fill="#666666"/>
<path fill-rule="evenodd" clip-rule="evenodd" d="M30.0996 20.7443C30.0343 20.6692 30.0207 20.5879 30.0589 20.5003C31.0084 19.574 31.7542 18.5165 32.296 17.3276C31.5764 17.5625 30.8714 17.8472 30.1809 18.1818C30.0793 18.242 29.998 18.2284 29.9369 18.1411C30.3036 16.7546 30.5477 15.3444 30.669 13.9109C32.8718 12.8115 35.2038 12.3777 37.6652 12.6093C36.9926 16.2484 35.0672 19.0008 31.8893 20.8663C31.2899 20.8772 30.6934 20.8365 30.0996 20.7443Z" fill="#666666"/>
<path fill-rule="evenodd" clip-rule="evenodd" d="M30.0996 20.7443C29.6354 20.7711 29.1745 20.7439 28.7167 20.663C29.2023 19.8548 29.6091 19.0142 29.9369 18.1411C29.998 18.2284 30.0794 18.242 30.181 18.1818C30.8715 17.8472 31.5765 17.5625 32.2961 17.3276C31.7542 18.5165 31.0085 19.574 30.059 20.5003C30.0207 20.5879 30.0343 20.6692 30.0996 20.7443Z" fill="#484848"/>
<path fill-rule="evenodd" clip-rule="evenodd" d="M7.72824 18.0598C8.04388 18.9627 8.45063 19.8304 8.94849 20.663C8.57265 20.7437 8.19307 20.7709 7.80959 20.7443C7.81862 20.6941 7.84571 20.6535 7.89094 20.6223C7.66446 20.5134 7.46108 20.3643 7.28081 20.1749C6.50424 19.3554 5.86694 18.4334 5.36908 17.409C5.39617 17.3819 5.42334 17.3547 5.45043 17.3276C6.18722 17.6896 6.93296 18.015 7.68756 18.3038C7.72686 18.2267 7.74036 18.1453 7.72824 18.0598Z" fill="#484848"/>
<path fill-rule="evenodd" clip-rule="evenodd" d="M28.1472 22.4527C30.6221 22.3152 32.927 22.8712 35.062 24.1204C35.4518 24.3613 35.8043 24.646 36.1195 24.9746C35.3064 25.4353 34.5199 25.937 33.7604 26.4795C33.6519 26.5338 33.5434 26.5338 33.435 26.4795C31.2127 24.8543 28.718 24.0137 25.9507 23.9577C26.4659 23.4967 26.9812 23.0357 27.4964 22.5747C27.7295 22.5598 27.9463 22.5192 28.1472 22.4527Z" fill="#555555"/>
<path fill-rule="evenodd" clip-rule="evenodd" d="M11.5517 23.8356C11.362 23.8899 11.1721 23.9441 10.9823 23.9983C8.40471 24.1567 6.08622 24.9973 4.02684 26.5202C3.16575 26.0244 2.33874 25.482 1.54565 24.8932C4.10152 22.8373 7.00304 22.0916 10.2501 22.6561C10.6513 23.0984 11.0851 23.4917 11.5517 23.8356Z" fill="#555555"/>
<path fill-rule="evenodd" clip-rule="evenodd" d="M11.5518 23.8356C11.5959 23.8405 11.623 23.8676 11.6331 23.917C11.4227 23.9967 11.2058 24.0238 10.9823 23.9983C11.1721 23.9441 11.362 23.8899 11.5518 23.8356Z" fill="#8E9090"/>
<path fill-rule="evenodd" clip-rule="evenodd" d="M15.4565 26.3575C13.7996 26.5395 12.2539 27.0818 10.8196 27.9845C10.7475 28.0516 10.7204 28.133 10.7382 28.2286C11.6232 28.4239 12.5181 28.4917 13.4228 28.4319C14.7969 28.2759 16.1256 28.0183 17.4089 27.6591C17.5722 27.7281 17.6671 27.8366 17.6937 27.9845C15.481 29.9625 12.8913 30.7353 9.92471 30.303C8.06586 29.997 6.41168 29.2513 4.96234 28.0659C5.25065 27.7643 5.57605 27.5067 5.93855 27.293C8.53012 25.7646 11.296 25.3036 14.2363 25.9101C14.6547 26.0359 15.0615 26.1851 15.4565 26.3575Z" fill="#555555"/>
<path fill-rule="evenodd" clip-rule="evenodd" d="M20.3376 27.5777C22.4334 28.4496 24.6027 28.6666 26.8456 28.2285C26.8456 28.1472 26.8456 28.0658 26.8456 27.9845C26.0126 27.5275 25.1449 27.1344 24.2424 26.8049C23.5049 26.6398 22.7728 26.5178 22.0459 26.4388C22.6456 26.0896 23.2964 25.8591 23.9983 25.7473C26.2359 25.4542 28.3781 25.7796 30.425 26.7236C31.2323 27.058 31.9645 27.5054 32.6215 28.0658C29.8621 30.2466 26.7708 30.8838 23.3475 29.9776C22.0771 29.5453 20.9517 28.881 19.9715 27.9845C19.9859 27.766 20.1079 27.6304 20.3376 27.5777Z" fill="#555555"/>
<path fill-rule="evenodd" clip-rule="evenodd" d="M15.4566 26.3575C16.1384 26.752 16.7892 27.186 17.409 27.6591C16.1256 28.0182 14.7969 28.2759 13.4228 28.4319C12.5181 28.4917 11.6233 28.4239 10.7383 28.2285C10.7205 28.133 10.7475 28.0516 10.8196 27.9845C12.254 27.0817 13.7996 26.5395 15.4566 26.3575Z" fill="#3F3F3F"/>
<path fill-rule="evenodd" clip-rule="evenodd" d="M22.0459 26.4388C22.7728 26.5178 23.505 26.6399 24.2424 26.8049C25.1449 27.1344 26.0126 27.5276 26.8456 27.9845C26.8456 28.0658 26.8456 28.1472 26.8456 28.2285C24.6027 28.6666 22.4334 28.4497 20.3376 27.5777C20.8624 27.1349 21.4318 26.7553 22.0459 26.4388Z" fill="#3F3F3F"/>
<path d="M45.1772 7.90965H51.0332C54.4892 7.90965 56.9132 10.3577 56.9132 13.4297C56.9132 16.5257 54.4892 18.9737 51.0332 18.9737H48.5852V24.7097H45.1772V7.90965ZM48.5852 16.1417H50.6732C52.2812 16.1417 53.5052 15.0377 53.5052 13.4537C53.5052 11.9177 52.2812 10.8137 50.6732 10.8137H48.5852V16.1417ZM64.4762 25.0217C61.1882 25.0217 58.8362 22.8857 58.8362 19.8137V12.5657H62.1962V19.5737C62.1962 21.1337 63.1562 22.0457 64.4762 22.0457C65.7962 22.0457 66.7322 21.1337 66.7322 19.5737V12.5657H70.0922V19.8137C70.0922 22.8857 67.7642 25.0217 64.4762 25.0217ZM76.1677 24.7097H72.8077V12.5417H76.1677V14.4617C76.7677 13.1897 78.1837 12.3977 80.1037 12.3977H80.5597V15.5897H79.5037C77.4157 15.5897 76.1677 16.8377 76.1677 19.5017V24.7097ZM92.232 12.9497L94.872 20.3897L97.296 12.5657H100.824L96.696 24.7817H93.456L90.96 17.6057L88.464 24.7817H85.224L81.096 12.5657H84.624L87.048 20.3897L89.688 12.9497H92.232ZM107.94 25.0217C104.196 25.0217 101.292 22.1897 101.292 18.6137C101.292 15.0617 104.196 12.2537 107.94 12.2537C111.684 12.2537 114.588 15.0617 114.588 18.6137C114.588 22.1897 111.684 25.0217 107.94 25.0217ZM107.94 22.0217C109.788 22.0217 111.276 20.5337 111.276 18.6137C111.276 16.7177 109.788 15.2537 107.94 15.2537C106.068 15.2537 104.604 16.7177 104.604 18.6137C104.604 20.5337 106.068 22.0217 107.94 22.0217ZM123.449 18.2777L128.465 24.7097H124.409L120.113 18.9737V24.7097H116.753V7.66965H120.113V17.8217L124.217 12.5657H128.105L123.449 18.2777ZM135.131 25.0217C131.123 25.0217 128.339 22.1897 128.339 18.6137C128.339 14.9897 131.171 12.2777 134.891 12.2777C138.611 12.2777 141.347 15.0137 141.347 18.5897C141.347 19.0217 141.299 19.3817 141.227 19.7417H131.627C131.795 21.0617 133.139 22.2617 135.107 22.2617C136.667 22.2617 137.771 21.5657 138.419 20.6057L140.819 22.0457C139.763 23.9177 137.675 25.0217 135.131 25.0217ZM131.627 17.2697H138.179C137.939 16.1417 136.691 15.0137 134.891 15.0137C133.139 15.0137 131.867 16.1417 131.627 17.2697ZM146.855 24.7097H143.495V12.5417H146.855V14.4617C147.455 13.1897 148.871 12.3977 150.791 12.3977H151.247V15.5897H150.191C148.103 15.5897 146.855 16.8377 146.855 19.5017V24.7097ZM158.167 12.5657H160.831V15.3497H158.167V24.7097H154.807V15.3497H152.143V12.5657H154.807V8.74966H158.167V12.5657ZM168.385 25.0217C164.641 25.0217 161.737 22.1897 161.737 18.6137C161.737 15.0617 164.641 12.2537 168.385 12.2537C172.129 12.2537 175.033 15.0617 175.033 18.6137C175.033 22.1897 172.129 25.0217 168.385 25.0217ZM168.385 22.0217C170.233 22.0217 171.721 20.5337 171.721 18.6137C171.721 16.7177 170.233 15.2537 168.385 15.2537C166.513 15.2537 165.049 16.7177 165.049 18.6137C165.049 20.5337 166.513 22.0217 168.385 22.0217ZM183.894 18.2777L188.91 24.7097H184.854L180.558 18.9737V24.7097H177.198V7.66965H180.558V17.8217L184.662 12.5657H188.55L183.894 18.2777ZM195.961 25.0217C192.673 25.0217 190.321 22.8857 190.321 19.8137V12.5657H193.681V19.5737C193.681 21.1337 194.641 22.0457 195.961 22.0457C197.281 22.0457 198.217 21.1337 198.217 19.5737V12.5657H201.577V19.8137C201.577 22.8857 199.249 25.0217 195.961 25.0217Z" fill="#222222"/>
</svg>
