<svg width="680" height="243" viewBox="0 0 680 243" fill="none" xmlns="http://www.w3.org/2000/svg">
<mask id="mask0_175_1693" style="mask-type:alpha" maskUnits="userSpaceOnUse" x="0" y="0" width="680" height="243">
<rect width="680" height="243" rx="20" fill="#D9D9D9"/>
</mask>
<g mask="url(#mask0_175_1693)">
<rect width="680" height="208" rx="20" fill="#F3F3F3"/>
<path d="M71.638 47.8H77.982C81.726 47.8 84.352 50.452 84.352 53.78C84.352 57.134 81.726 59.786 77.982 59.786H75.33V66H71.638V47.8ZM75.33 56.718H77.592C79.334 56.718 80.66 55.522 80.66 53.806C80.66 52.142 79.334 50.946 77.592 50.946H75.33V56.718ZM92.5453 66.338C88.9833 66.338 86.4353 64.024 86.4353 60.696V52.844H90.0753V60.436C90.0753 62.126 91.1153 63.114 92.5453 63.114C93.9753 63.114 94.9893 62.126 94.9893 60.436V52.844H98.6293V60.696C98.6293 64.024 96.1073 66.338 92.5453 66.338ZM105.211 66H101.571V52.818H105.211V54.898C105.861 53.52 107.395 52.662 109.475 52.662H109.969V56.12H108.825C106.563 56.12 105.211 57.472 105.211 60.358V66ZM122.614 53.26L125.474 61.32L128.1 52.844H131.922L127.45 66.078H123.94L121.236 58.304L118.532 66.078H115.022L110.55 52.844H114.372L116.998 61.32L119.858 53.26H122.614ZM139.631 66.338C135.575 66.338 132.429 63.27 132.429 59.396C132.429 55.548 135.575 52.506 139.631 52.506C143.687 52.506 146.833 55.548 146.833 59.396C146.833 63.27 143.687 66.338 139.631 66.338ZM139.631 63.088C141.633 63.088 143.245 61.476 143.245 59.396C143.245 57.342 141.633 55.756 139.631 55.756C137.603 55.756 136.017 57.342 136.017 59.396C136.017 61.476 137.603 63.088 139.631 63.088ZM156.433 59.032L161.867 66H157.473L152.819 59.786V66H149.179V47.54H152.819V58.538L157.265 52.844H161.477L156.433 59.032ZM169.088 66.338C164.746 66.338 161.73 63.27 161.73 59.396C161.73 55.47 164.798 52.532 168.828 52.532C172.858 52.532 175.822 55.496 175.822 59.37C175.822 59.838 175.77 60.228 175.692 60.618H165.292C165.474 62.048 166.93 63.348 169.062 63.348C170.752 63.348 171.948 62.594 172.65 61.554L175.25 63.114C174.106 65.142 171.844 66.338 169.088 66.338ZM165.292 57.94H172.39C172.13 56.718 170.778 55.496 168.828 55.496C166.93 55.496 165.552 56.718 165.292 57.94ZM181.789 66H178.149V52.818H181.789V54.898C182.439 53.52 183.973 52.662 186.053 52.662H186.547V56.12H185.403C183.141 56.12 181.789 57.472 181.789 60.358V66ZM194.044 52.844H196.93V55.86H194.044V66H190.404V55.86H187.518V52.844H190.404V48.71H194.044V52.844ZM205.113 66.338C201.057 66.338 197.911 63.27 197.911 59.396C197.911 55.548 201.057 52.506 205.113 52.506C209.169 52.506 212.315 55.548 212.315 59.396C212.315 63.27 209.169 66.338 205.113 66.338ZM205.113 63.088C207.115 63.088 208.727 61.476 208.727 59.396C208.727 57.342 207.115 55.756 205.113 55.756C203.085 55.756 201.499 57.342 201.499 59.396C201.499 61.476 203.085 63.088 205.113 63.088Z" fill="#333333"/>
<path d="M106.516 154H72.176V145.976L87.612 131.288C91.08 127.956 94.752 124.828 94.752 121.36C94.752 117.892 92.304 115.24 88.428 115.24C84.484 115.24 81.22 117.756 80.2 122.924L71.632 118.164C73.944 109.936 80.404 105.516 88.836 105.516C98.832 105.516 106.176 111.5 106.176 121.36C106.176 128.296 102.368 132.24 98.084 136.252L89.992 143.8H106.516V154ZM131.36 122.788C141.016 122.788 146.32 130.2 146.32 138.428C146.32 148.492 138.364 154.884 128.3 154.884C119.936 154.884 113.68 151.348 110.416 144.752L120.616 139.924C122.18 143.664 125.24 145.296 127.96 145.228C132.176 145.16 135.032 142.508 135.032 138.7C135.032 134.892 132.244 132.036 127.96 132.172C125.444 132.172 122.996 133.668 121.772 135.572L111.504 130.948L114.496 106.4H144.212V116.396H124.152L122.928 125.372C124.968 123.808 127.688 122.788 131.36 122.788Z" fill="#333333"/>
<circle cx="156.5" cy="93.5" r="5" stroke="#333333" stroke-width="5"/>
<path d="M176.308 164.216C172.546 164.216 169.684 161.372 169.684 157.7C169.684 154.028 172.546 151.184 176.308 151.184C180.07 151.184 182.914 154.028 182.914 157.7C182.914 161.372 180.07 164.216 176.308 164.216ZM176.308 162.29C178.828 162.29 180.826 160.274 180.826 157.7C180.826 155.126 178.828 153.11 176.308 153.11C173.77 153.11 171.772 155.126 171.772 157.7C171.772 160.274 173.77 162.29 176.308 162.29ZM188.504 161.516L190.988 154.91H193.292L189.548 164.072H187.46L183.716 154.91H186.02L188.504 161.516ZM198.611 164.216C195.677 164.216 193.607 162.11 193.607 159.428C193.607 156.764 195.695 154.694 198.449 154.694C201.185 154.694 203.219 156.764 203.219 159.392C203.219 159.68 203.201 159.896 203.147 160.148H195.677C195.821 161.354 196.973 162.452 198.611 162.452C199.871 162.452 200.789 161.84 201.293 161.03L202.823 161.966C202.031 163.37 200.483 164.216 198.611 164.216ZM195.713 158.51H201.203C201.023 157.502 199.979 156.458 198.467 156.458C196.955 156.458 195.893 157.52 195.713 158.51ZM207.169 164H205.081V154.91H207.169V156.512C207.619 155.432 208.735 154.784 210.193 154.784H210.517V156.782H209.833C208.213 156.782 207.169 157.79 207.169 159.95V164ZM216.135 164.216C213.363 164.216 211.203 162.11 211.203 159.428C211.203 156.764 213.363 154.694 216.117 154.694C218.025 154.694 219.483 155.63 220.293 157.016L218.673 157.934C218.205 157.106 217.305 156.494 216.171 156.494C214.551 156.494 213.291 157.826 213.291 159.446C213.291 161.084 214.551 162.398 216.171 162.398C217.269 162.398 218.187 161.822 218.655 160.976L220.347 161.894C219.573 163.226 218.079 164.216 216.135 164.216ZM229.228 156.044L229.21 154.892L231.298 154.91V164H229.21L229.228 162.866C228.436 163.694 227.338 164.216 226.06 164.216C223.432 164.216 221.38 162.11 221.38 159.446C221.38 156.764 223.432 154.694 226.06 154.694C227.338 154.694 228.436 155.198 229.228 156.044ZM226.348 162.38C227.95 162.38 229.228 161.084 229.228 159.446C229.21 157.808 227.95 156.53 226.348 156.53C224.746 156.53 223.468 157.808 223.468 159.446C223.468 161.084 224.746 162.38 226.348 162.38ZM236.722 164.216C235.102 164.216 233.824 163.658 232.996 162.524L234.04 161.102C234.634 161.948 235.642 162.524 236.776 162.524C237.748 162.524 238.288 162.128 238.288 161.516C238.288 160.58 236.776 160.436 235.444 159.896C234.364 159.482 233.338 158.888 233.374 157.358C233.392 155.738 234.724 154.694 236.812 154.694C238.18 154.694 239.368 155.18 240.214 156.134L239.26 157.574C238.666 156.854 237.82 156.368 236.866 156.368C235.966 156.368 235.444 156.728 235.444 157.286C235.444 158.132 236.74 158.33 237.982 158.78C239.17 159.194 240.376 159.788 240.376 161.408C240.376 163.118 238.846 164.216 236.722 164.216ZM245.464 154.91H247.516V156.656H245.464V164H243.376V156.656H241.324V154.91H243.376V152.066H245.464V154.91Z" fill="#555555"/>
<path d="M486.968 92.216C484.61 92.216 482.936 90.992 482.252 89.21L483.872 88.31C484.448 89.642 485.582 90.416 486.95 90.416C488.282 90.416 489.146 89.678 489.146 88.598C489.146 85.826 482.756 87.068 482.756 82.748C482.756 80.444 484.556 79.184 486.914 79.184C488.894 79.184 490.406 80.102 491.18 81.812L489.56 82.766C489.092 81.65 488.228 80.966 486.986 80.966C485.708 80.966 484.916 81.668 484.916 82.658C484.916 85.304 491.306 84.152 491.306 88.526C491.306 90.83 489.524 92.216 486.968 92.216ZM497.028 92.216C494.652 92.216 492.978 90.65 492.978 88.4V82.91H495.066V88.256C495.066 89.57 495.876 90.362 497.028 90.362C498.162 90.362 498.99 89.57 498.99 88.256V82.91H501.078V88.4C501.078 90.65 499.386 92.216 497.028 92.216ZM508.209 82.676C510.369 82.676 511.935 84.17 511.935 86.402V92H509.847V86.906C509.847 85.448 509.001 84.53 507.705 84.53C506.373 84.53 505.491 85.52 505.491 87.068V92H503.403V82.892H505.491V83.9C506.121 83.126 507.057 82.676 508.209 82.676Z" fill="#555555"/>
<path d="M529.85 80.504C532.496 80.504 534.314 82.25 534.314 84.662C534.314 87.218 532.352 89.234 529.508 89.234C526.664 89.234 524.612 87.344 524.612 84.608C524.612 83.582 524.99 82.52 525.728 81.386L528.95 76.4H531.884L529.094 80.558C529.328 80.522 529.58 80.504 529.85 80.504ZM529.454 87.02C530.786 87.02 531.776 86.03 531.776 84.734C531.776 83.438 530.804 82.484 529.454 82.484C528.14 82.484 527.15 83.456 527.15 84.734C527.15 86.048 528.14 87.02 529.454 87.02ZM543.898 78.146L540.91 81.44C542.98 81.692 544.24 83.294 544.24 85.184C544.24 87.614 542.206 89.234 539.614 89.234C537.472 89.234 535.798 88.118 535.186 86.408L537.274 85.238C537.562 86.21 538.39 86.966 539.56 86.966C540.748 86.966 541.684 86.192 541.684 85.058C541.684 83.888 540.694 83.222 539.542 83.222H538.444L537.742 81.926L540.586 78.704H535.69V76.4H543.898V78.146Z" fill="#555555"/>
<circle cx="558.5" cy="75.5" r="2.5" stroke="#555555" stroke-width="2"/>
<path d="M577.814 80.774C580.37 80.774 581.828 82.682 581.828 84.896C581.828 87.542 579.776 89.234 577.148 89.234C575.042 89.234 573.422 88.316 572.576 86.642L574.898 85.562C575.33 86.57 576.23 87.056 577.076 87.038C578.372 87.02 579.272 86.174 579.272 84.968C579.272 83.762 578.39 82.862 577.076 82.898C576.284 82.898 575.528 83.348 575.132 83.942L572.846 82.898L573.638 76.4H581.234V78.668H575.834L575.42 81.566C576.014 81.098 576.788 80.774 577.814 80.774ZM586.815 89H584.025L588.633 78.668H582.981V76.4H591.693V77.876L586.815 89Z" fill="#555555"/>
<circle cx="606.5" cy="75.5" r="2.5" stroke="#555555" stroke-width="2"/>
<path d="M431.294 137H428.972L427.856 134.228H422.276L421.16 137H418.838L424.112 124.4H426.02L431.294 137ZM425.066 127.262L422.942 132.572H427.19L425.066 127.262ZM433.379 126.56C432.641 126.56 432.083 126.038 432.083 125.3C432.083 124.562 432.641 124.04 433.379 124.04C434.135 124.04 434.675 124.562 434.675 125.3C434.675 126.038 434.135 126.56 433.379 126.56ZM434.423 137H432.335V127.91H434.423V137ZM438.923 137H436.835V127.91H438.923V129.512C439.373 128.432 440.489 127.784 441.947 127.784H442.271V129.782H441.587C439.967 129.782 438.923 130.79 438.923 132.95V137ZM455.85 129.044L455.814 127.892H457.902V140.6H455.814V137L455.85 135.848C455.058 136.694 453.942 137.216 452.664 137.216C450.036 137.216 447.984 135.11 447.984 132.446C447.984 129.764 450.036 127.694 452.664 127.694C453.942 127.694 455.058 128.198 455.85 129.044ZM452.952 135.38C454.554 135.38 455.832 134.084 455.832 132.446C455.814 130.808 454.554 129.53 452.952 129.53C451.35 129.53 450.072 130.808 450.072 132.446C450.072 134.084 451.35 135.38 452.952 135.38ZM464.297 137.216C461.921 137.216 460.247 135.65 460.247 133.4V127.91H462.335V133.256C462.335 134.57 463.145 135.362 464.297 135.362C465.431 135.362 466.259 134.57 466.259 133.256V127.91H468.347V133.4C468.347 135.65 466.655 137.216 464.297 137.216ZM477.963 129.044L477.945 127.892L480.033 127.91V137H477.945L477.963 135.866C477.171 136.694 476.073 137.216 474.795 137.216C472.167 137.216 470.115 135.11 470.115 132.446C470.115 129.764 472.167 127.694 474.795 127.694C476.073 127.694 477.171 128.198 477.963 129.044ZM475.083 135.38C476.685 135.38 477.963 134.084 477.963 132.446C477.945 130.808 476.685 129.53 475.083 129.53C473.481 129.53 472.203 130.808 472.203 132.446C472.203 134.084 473.481 135.38 475.083 135.38ZM484.521 137H482.433V124.22H484.521V137ZM487.977 126.56C487.239 126.56 486.681 126.038 486.681 125.3C486.681 124.562 487.239 124.04 487.977 124.04C488.733 124.04 489.273 124.562 489.273 125.3C489.273 126.038 488.733 126.56 487.977 126.56ZM489.021 137H486.933V127.91H489.021V137ZM494.709 127.91H496.761V129.656H494.709V137H492.621V129.656H490.569V127.91H492.621V125.066H494.709V127.91ZM499.493 127.91L501.977 134.246L504.461 127.91H506.657L501.527 140.6H499.367L500.915 136.892L497.243 127.91H499.493ZM512.757 136.028C512.757 135.584 512.865 135.272 513.081 135.092C513.297 134.912 513.555 134.822 513.855 134.822C514.167 134.822 514.431 134.912 514.647 135.092C514.875 135.272 514.989 135.584 514.989 136.028C514.989 136.46 514.875 136.772 514.647 136.964C514.431 137.156 514.167 137.252 513.855 137.252C513.555 137.252 513.297 137.156 513.081 136.964C512.865 136.772 512.757 136.46 512.757 136.028ZM512.757 128.324C512.757 127.868 512.865 127.55 513.081 127.37C513.297 127.19 513.555 127.1 513.855 127.1C514.167 127.1 514.431 127.19 514.647 127.37C514.875 127.55 514.989 127.868 514.989 128.324C514.989 128.756 514.875 129.068 514.647 129.26C514.431 129.452 514.167 129.548 513.855 129.548C513.555 129.548 513.297 129.452 513.081 129.26C512.865 129.068 512.757 128.756 512.757 128.324ZM530.313 137H521.655V135.488L525.975 131.258C527.055 130.196 528.045 129.206 528.045 128.18C528.045 126.938 527.145 126.02 525.831 126.02C524.553 126.02 523.563 126.776 523.257 128.18L521.637 127.28C522.195 125.3 523.779 124.184 525.885 124.184C528.369 124.184 530.169 125.732 530.169 128.162C530.169 129.872 529.143 131.024 527.901 132.23L524.967 135.092H530.313V137ZM537.039 137.234C533.979 137.234 531.819 134.48 531.819 130.7C531.819 126.902 533.979 124.166 537.039 124.166C540.099 124.166 542.259 126.902 542.259 130.7C542.259 134.48 540.099 137.234 537.039 137.234ZM537.039 135.164C538.875 135.164 540.135 133.31 540.135 130.7C540.135 128.072 538.875 126.236 537.039 126.236C535.221 126.236 533.961 128.072 533.961 130.7C533.961 133.31 535.221 135.164 537.039 135.164ZM555.121 132.77H548.731V130.79H555.121V132.77ZM567.86 131.834V129.998H574.43V130.826C574.43 134.426 571.658 137.216 567.986 137.216C564.296 137.216 561.452 134.372 561.452 130.682C561.452 127.01 564.296 124.184 568.022 124.184C570.56 124.184 572.54 125.372 573.674 127.244L571.838 128.27C571.118 127.028 569.786 126.182 568.112 126.182C565.556 126.182 563.612 128.162 563.612 130.682C563.612 133.202 565.52 135.2 567.986 135.2C570.29 135.2 571.874 133.724 572.324 131.834H567.86ZM580.709 137.216C577.955 137.216 575.777 135.092 575.777 132.428C575.777 129.782 577.955 127.694 580.709 127.694C583.445 127.694 585.623 129.782 585.623 132.428C585.623 135.092 583.445 137.216 580.709 137.216ZM580.709 135.344C582.293 135.344 583.553 134.066 583.553 132.446C583.553 130.826 582.293 129.548 580.709 129.548C579.107 129.548 577.847 130.826 577.847 132.446C577.847 134.084 579.107 135.344 580.709 135.344ZM591.853 137.216C589.099 137.216 586.921 135.092 586.921 132.428C586.921 129.782 589.099 127.694 591.853 127.694C594.589 127.694 596.767 129.782 596.767 132.428C596.767 135.092 594.589 137.216 591.853 137.216ZM591.853 135.344C593.437 135.344 594.697 134.066 594.697 132.446C594.697 130.826 593.437 129.548 591.853 129.548C590.251 129.548 588.991 130.826 588.991 132.446C588.991 134.084 590.251 135.344 591.853 135.344ZM605.896 127.892V124.22H607.984V137H605.896L605.932 135.848C605.14 136.694 604.024 137.216 602.746 137.216C600.118 137.216 598.066 135.11 598.066 132.446C598.066 129.764 600.118 127.694 602.746 127.694C604.024 127.694 605.14 128.198 605.932 129.044L605.896 127.892ZM603.034 135.38C604.636 135.38 605.914 134.084 605.914 132.446C605.896 130.808 604.636 129.53 603.034 129.53C601.432 129.53 600.154 130.808 600.154 132.446C600.154 134.084 601.432 135.38 603.034 135.38Z" fill="#555555"/>
<mask id="path-13-inside-1_175_1693" fill="white">
<path fill-rule="evenodd" clip-rule="evenodd" d="M309.609 -34.9596C310.395 -35.3301 311.181 -35.7011 311.967 -36.0716C312.093 -35.8039 312.22 -35.5362 312.346 -35.2684C312.488 -34.9672 312.63 -34.6661 312.772 -34.3649C313.561 -32.6916 314.35 -31.0183 315.14 -29.345C314.637 -29.108 314.134 -28.8704 313.631 -28.6334C314.613 -26.357 315.64 -24.1001 316.709 -21.8623C316.961 -21.9811 317.212 -22.0994 317.464 -22.2182C317.716 -21.6827 317.969 -21.1472 318.221 -20.6118C318.504 -20.7452 318.787 -20.8787 319.07 -21.0121C319.353 -21.1456 319.636 -21.279 319.919 -21.4124C320.061 -21.1113 320.203 -20.8101 320.345 -20.5089C320.597 -20.6276 320.848 -20.7459 321.099 -20.8647C321.226 -20.5969 321.352 -20.3293 321.478 -20.0615C321.73 -20.1803 321.981 -20.2986 322.233 -20.4174C322.359 -20.1496 322.485 -19.882 322.611 -19.6142C322.754 -19.313 322.896 -19.0118 323.038 -18.7106C323.572 -18.9628 324.106 -19.2146 324.641 -19.4668C324.767 -19.199 324.893 -18.9314 325.02 -18.6636C325.271 -18.7824 325.522 -18.9007 325.774 -19.0194C326.295 -17.9151 326.816 -16.8107 327.337 -15.7064C327.583 -15.8425 327.841 -15.944 328.115 -16.012C328.316 -15.8148 328.466 -15.5784 328.564 -15.3035C328.799 -15.4469 329.05 -15.5247 329.319 -15.5367C329.618 -15.0245 329.887 -14.4967 330.124 -13.9526C330.626 -14.1897 331.13 -14.4272 331.633 -14.6643C331.939 -14.1142 332.239 -13.5599 332.532 -13.002C332.784 -13.1208 333.035 -13.2391 333.286 -13.3578C333.539 -12.8224 333.791 -12.2869 334.044 -11.7515C334.296 -11.8703 334.547 -11.9886 334.798 -12.1073C334.94 -11.8061 335.083 -11.505 335.225 -11.2038C335.476 -11.3225 335.727 -11.4408 335.979 -11.5596C336.092 -11.2512 336.258 -10.9819 336.476 -10.7507C337.285 -11.071 338.078 -11.4249 338.857 -11.8125C338.983 -11.5447 339.11 -11.2771 339.236 -11.0093C339.488 -11.1281 339.739 -11.2464 339.99 -11.3652C340.117 -11.0974 340.243 -10.8297 340.369 -10.562C340.621 -10.6807 340.872 -10.7991 341.124 -10.9178C341.266 -10.6166 341.408 -10.3154 341.55 -10.0142C341.802 -10.133 342.052 -10.2513 342.304 -10.3701C342.43 -10.1023 342.557 -9.83467 342.683 -9.56691C342.966 -9.70035 343.249 -9.83379 343.532 -9.96723C343.784 -10.086 344.034 -10.2043 344.286 -10.3231C344.807 -9.2187 345.328 -8.11434 345.849 -7.00998C346.101 -7.12874 346.351 -7.24705 346.603 -7.36581C347.056 -6.5582 347.482 -5.73671 347.881 -4.90038C348.133 -5.01914 348.384 -5.13746 348.636 -5.25622C348.778 -4.95503 348.92 -4.65384 349.062 -4.35265C349.314 -4.47141 349.565 -4.58972 349.816 -4.70848C350.18 -3.89705 350.574 -3.10143 351 -2.32121C351.269 -2.3332 351.52 -2.41096 351.755 -2.55441C351.853 -2.27946 352.003 -2.04314 352.204 -1.84591C352.478 -1.91389 352.736 -2.01543 352.982 -2.15155C353.234 -2.27031 353.485 -2.38862 353.737 -2.50738C353.863 -2.23963 353.989 -1.97197 354.115 -1.70421C354.65 -1.95641 355.184 -2.20817 355.719 -2.46036C355.987 -1.89141 356.255 -1.32257 356.524 -0.753618C356.775 -0.872381 357.026 -0.990694 357.278 -1.10946C357.404 -0.841699 357.531 -0.574041 357.657 -0.306283C358.192 -0.55848 358.725 -0.810234 359.26 -1.06243C359.402 -0.761248 359.544 -0.460058 359.686 -0.158868C359.969 -0.292305 360.252 -0.425743 360.535 -0.559181C360.661 -0.291423 360.788 -0.0237652 360.914 0.243993C361.166 0.12523 361.416 0.00691691 361.668 -0.111846C361.937 0.457102 362.205 1.02595 362.473 1.59489C362.725 1.47614 362.976 1.35782 363.228 1.23906C363.496 1.80801 363.764 2.37686 364.033 2.9458C364.284 2.82704 364.535 2.70873 364.787 2.58997C365.283 3.6676 365.819 4.72385 366.397 5.75818C366.915 5.55454 367.435 5.35055 367.953 5.1469C368.474 6.25126 368.995 7.35563 369.516 8.45999C369.264 8.57875 369.013 8.69707 368.761 8.81583C368.903 9.11701 369.045 9.41821 369.187 9.71939C369.439 9.60063 369.69 9.48232 369.942 9.36356C370.336 10.2002 370.731 11.0369 371.126 11.8735C371.377 11.7547 371.628 11.6364 371.88 11.5176C372.006 11.7854 372.133 12.0531 372.259 12.3208C373.076 11.9352 373.893 11.55 374.711 11.1643C374.584 10.8966 374.458 10.6289 374.332 10.3612C374.835 10.1241 375.338 9.88657 375.841 9.6495C375.967 9.91726 376.093 10.1849 376.22 10.4527C376.754 10.2005 377.288 9.94872 377.823 9.69652C377.949 9.96427 378.075 10.2319 378.202 10.4997C378.738 11.6375 379.275 12.7754 379.812 13.9132C380.063 13.7944 380.314 13.6761 380.566 13.5573C380.834 14.1263 381.103 14.6951 381.371 15.2641C381.623 15.1453 381.874 15.027 382.125 14.9082C382.631 15.9792 383.136 17.05 383.641 18.1209C383.154 18.3914 382.666 18.6625 382.179 18.933C382.432 19.4684 382.684 20.0039 382.937 20.5393C382.675 20.6425 382.433 20.7776 382.206 20.9454C382.23 21.2262 382.318 21.4919 382.467 21.7428C382.207 21.8325 381.987 21.9771 381.807 22.1768C382.281 23.3029 382.785 24.4148 383.323 25.5122C383.857 25.26 384.391 25.0082 384.926 24.756C385.194 25.3249 385.462 25.8938 385.731 26.4627C385.983 26.344 386.233 26.2257 386.485 26.1069C386.754 26.6759 387.022 27.2447 387.29 27.8137C387.542 27.6949 387.793 27.5766 388.045 27.4578C388.351 28.0079 388.651 28.5622 388.944 29.1201C389.196 29.0013 389.447 28.883 389.698 28.7642C389.825 29.032 389.951 29.2997 390.077 29.5674C390.329 29.4487 390.58 29.3303 390.832 29.2116C390.93 29.4865 391.08 29.7228 391.281 29.9201C391.555 29.8521 391.813 29.7506 392.059 29.6144C392.185 29.8822 392.312 30.1499 392.438 30.4176C392.69 30.2989 392.941 30.1805 393.192 30.0618C393.335 30.363 393.477 30.6641 393.619 30.9653C393.87 30.8466 394.121 30.7283 394.373 30.6095C394.499 30.8776 394.625 31.1446 394.752 31.4127C395.035 31.2792 395.318 31.1458 395.601 31.0124C395.852 30.8936 396.103 30.7753 396.355 30.6565C396.481 30.9246 396.607 31.1916 396.734 31.4597C396.876 31.7609 397.018 32.0621 397.16 32.3633C397.412 32.2445 397.663 32.1262 397.914 32.0074C398.435 33.1118 398.956 34.2162 399.477 35.3205C399.729 35.2018 399.98 35.0834 400.232 34.9647C400.339 35.2686 400.497 35.5205 400.705 35.7234C400.973 36.2926 401.241 36.8609 401.51 37.4301C401.761 37.3114 402.012 37.193 402.264 37.0743C402.391 37.3423 402.517 37.6094 402.643 37.8775C402.895 37.7587 403.146 37.6404 403.397 37.5216C403.69 38.0793 403.99 38.6339 404.297 39.1839C402.694 39.94 401.09 40.6962 399.487 41.4523C399.756 42.0216 400.024 42.5898 400.292 43.1591C400.04 43.2778 399.79 43.3962 399.538 43.5149C399.664 43.783 399.79 44.05 399.917 44.3181C400.453 45.4556 400.99 46.5941 401.527 47.7316C401.779 48.2667 402.032 48.8028 402.284 49.3379C403.054 51.0219 403.876 52.6804 404.746 54.3133C405.327 53.8342 405.706 53.9835 405.88 54.7606C406.114 54.617 406.365 54.5389 406.634 54.5274C407.328 55.8766 407.992 57.2414 408.623 58.6214C408.088 58.8736 407.554 59.1254 407.02 59.3776C407.146 59.6456 407.272 59.9127 407.399 60.1807C404.538 61.5298 401.677 62.8793 398.817 64.2284C398.707 63.9945 398.596 63.7595 398.485 63.5256C397.951 63.7778 397.417 64.0296 396.882 64.2817C397.009 64.5498 397.135 64.8169 397.261 65.0849C396.726 65.3371 396.193 65.5889 395.658 65.8411C395.91 66.3762 396.163 66.9123 396.416 67.4474C395.881 67.6996 395.347 67.9514 394.812 68.2036C394.955 68.5048 395.097 68.8059 395.239 69.1071C394.987 69.2259 394.736 69.3442 394.484 69.463C394.611 69.731 394.737 69.9981 394.863 70.2661C393.291 71.0076 391.72 71.7486 390.148 72.4901C390.274 72.7582 390.4 73.0252 390.527 73.2933C390.235 73.3964 389.985 73.5564 389.773 73.7718C390.105 74.5982 390.5 75.3938 390.956 76.159C389.925 76.7389 388.872 77.2759 387.797 77.7717C387.908 78.0057 388.018 78.2406 388.129 78.4745C387.614 78.7674 387.095 79.0528 386.573 79.3311C386.699 79.5991 386.825 79.8662 386.952 80.1342C386.7 80.253 386.449 80.3713 386.197 80.4901C386.466 81.0593 386.734 81.6276 387.002 82.1968C386.719 82.3302 386.436 82.4637 386.154 82.5971C386.28 82.8652 386.406 83.1322 386.532 83.4003C386.313 83.5039 386.092 83.608 385.872 83.7117C386.125 84.2468 386.378 84.7829 386.63 85.318C386.864 85.1744 387.116 85.0963 387.385 85.0848C387.557 85.3286 387.698 85.5885 387.811 85.8657C388.898 85.4029 389.983 84.9321 391.064 84.4538C391.175 84.6877 391.285 84.9227 391.396 85.1566C391.914 84.9527 392.434 84.7493 392.952 84.5453C393.204 85.0804 393.457 85.6166 393.71 86.1517C393.458 86.2704 393.207 86.3888 392.955 86.5075C393.538 87.9484 394.169 89.3691 394.85 90.7686C394.598 90.8874 394.347 91.0057 394.095 91.1245C394.222 91.3925 394.348 91.6596 394.474 91.9277C394.743 92.4969 395.011 93.0651 395.279 93.6344C394.776 93.8715 394.273 94.109 393.77 94.3461C393.236 94.5983 392.702 94.85 392.167 95.1022C392.294 95.3703 392.419 95.6373 392.546 95.9054C391.226 96.5281 389.905 97.1508 388.585 97.7735C388.712 98.0416 388.838 98.3086 388.964 98.5767C388.396 98.8052 387.878 99.0901 387.408 99.4332C387.156 99.552 386.906 99.6703 386.654 99.7891C386.78 100.057 386.906 100.324 387.033 100.592C386.781 100.711 386.53 100.829 386.278 100.948C386.959 102.348 387.59 103.768 388.173 105.209C387.953 105.313 387.732 105.417 387.513 105.521C387.742 106.107 387.979 106.691 388.223 107.272C388.475 107.153 388.726 107.035 388.978 106.916C389.215 107.46 389.483 107.988 389.783 108.5C390.084 108.473 390.367 108.382 390.631 108.222C390.742 108.456 390.853 108.691 390.963 108.925C391.749 108.552 392.551 108.214 393.368 107.914C393.62 108.449 393.873 108.985 394.126 109.52C394.911 109.149 395.698 108.778 396.483 108.408C396.625 108.709 396.767 109.01 396.909 109.312C397.161 109.193 397.412 109.074 397.664 108.956C398.057 109.795 398.483 110.617 398.942 111.421C399.162 111.317 399.382 111.213 399.602 111.11C400.196 112.182 400.716 113.287 401.165 114.423C400.945 114.526 400.724 114.631 400.505 114.734C401.087 116.175 401.718 117.596 402.399 118.995C402.147 119.114 401.896 119.232 401.645 119.351C401.771 119.619 401.897 119.886 402.024 120.154C401.772 120.273 401.521 120.391 401.269 120.51C401.975 122.22 402.733 123.909 403.542 125.574C403.283 125.664 403.062 125.808 402.883 126.008C403.087 126.565 403.324 127.109 403.593 127.637C403.719 127.905 403.845 128.172 403.972 128.44C403.72 128.559 403.469 128.677 403.217 128.796C402.956 128.9 402.713 129.034 402.487 129.202C402.511 129.483 402.598 129.749 402.748 130C402.488 130.089 402.268 130.233 402.088 130.434C402.561 131.559 403.066 132.671 403.603 133.769C403.101 134.006 402.597 134.243 402.094 134.481C401.2 132.528 400.252 130.602 399.253 128.702C399.019 128.846 398.768 128.924 398.499 128.935C398.326 128.691 398.185 128.431 398.073 128.154C397.57 128.391 397.067 128.629 396.564 128.866C396.438 128.598 396.312 128.331 396.185 128.063C395.902 128.196 395.619 128.33 395.336 128.463C395.21 128.195 395.084 127.928 394.958 127.66C394.706 127.779 394.455 127.897 394.203 128.016C393.935 127.447 393.667 126.878 393.398 126.309C392.864 126.561 392.33 126.813 391.795 127.065C391.26 127.317 390.727 127.569 390.192 127.821C390.065 127.553 389.94 127.286 389.813 127.018C388.486 127.541 387.181 128.116 385.899 128.741C385.773 128.473 385.647 128.206 385.52 127.938C385.238 128.072 384.955 128.205 384.672 128.339C384.545 128.07 384.419 127.803 384.293 127.535C383.775 127.739 383.255 127.943 382.737 128.147C382.626 127.913 382.516 127.678 382.405 127.444C381.085 128.067 379.765 128.689 378.445 129.312C378.555 129.546 378.666 129.781 378.776 130.015C377.731 130.493 376.709 131.015 375.711 131.583C375.838 131.851 375.964 132.118 376.09 132.386C375.807 132.52 375.524 132.653 375.241 132.787C374.739 133.024 374.235 133.261 373.733 133.498C373.339 132.659 372.914 131.837 372.454 131.033C372.203 131.151 371.952 131.27 371.7 131.389C371.574 131.121 371.448 130.853 371.321 130.585C371.053 130.016 370.785 129.448 370.516 128.879C370.264 128.997 370.014 129.116 369.762 129.235C369.635 128.966 369.509 128.699 369.383 128.431C369.131 128.55 368.88 128.668 368.629 128.787C368.486 128.486 368.344 128.185 368.202 127.884C367.668 128.136 367.134 128.388 366.599 128.64C366.473 128.372 366.347 128.105 366.22 127.837C365.969 127.955 365.718 128.074 365.466 128.192C365.197 127.623 364.929 127.055 364.661 126.486C364.378 126.619 364.095 126.753 363.812 126.886C363.686 126.618 363.56 126.351 363.433 126.083C363.182 126.202 362.931 126.32 362.679 126.439C362.41 125.869 362.142 125.301 361.874 124.732C361.622 124.851 361.371 124.969 361.119 125.088C360.72 124.251 360.294 123.43 359.841 122.622C359.59 122.741 359.339 122.859 359.087 122.978C358.96 122.71 358.835 122.443 358.708 122.175C358.456 122.294 358.205 122.412 357.954 122.531C357.812 122.23 357.67 121.928 357.527 121.627C357.007 120.523 356.486 119.419 355.965 118.314C356.467 118.077 356.971 117.84 357.474 117.602C356.906 116.19 356.274 114.81 355.579 113.464C355.278 113.491 354.995 113.582 354.73 113.742C354.604 113.474 354.478 113.207 354.352 112.938C354.1 113.057 353.849 113.176 353.597 113.294C353.455 112.993 353.313 112.692 353.171 112.391C352.134 112.88 351.096 113.369 350.059 113.859C349.933 113.591 349.807 113.323 349.68 113.055C349.397 113.189 349.114 113.322 348.831 113.456C348.705 113.188 348.579 112.921 348.453 112.653C348.17 112.786 347.887 112.919 347.604 113.053C347.462 112.752 347.32 112.45 347.178 112.149C346.958 112.253 346.738 112.357 346.518 112.461C346.391 112.193 346.265 111.926 346.139 111.657C345.856 111.791 345.573 111.924 345.29 112.058C345.038 111.523 344.785 110.987 344.532 110.451C344.014 110.656 343.495 110.859 342.976 111.063C342.724 110.528 342.471 109.991 342.218 109.456C342.438 109.353 342.659 109.249 342.879 109.145C342.752 108.877 342.626 108.61 342.5 108.342C342.28 108.446 342.06 108.549 341.84 108.653C341.311 107.51 340.743 106.387 340.135 105.284C339.884 105.403 339.632 105.521 339.381 105.64C339.129 105.759 338.878 105.877 338.626 105.996C337.174 102.917 335.722 99.8385 334.27 96.7594C333.875 95.9231 333.481 95.0858 333.086 94.2495C332.835 94.3681 332.583 94.4867 332.332 94.6053C332.205 94.3372 332.079 94.0702 331.953 93.8021C331.67 93.9356 331.387 94.069 331.104 94.2025C330.978 93.9344 330.852 93.6673 330.725 93.3993C330.207 93.6034 329.688 93.8065 329.169 94.0106C329.043 93.7425 328.917 93.4754 328.79 93.2074C328.507 93.3408 328.224 93.4743 327.942 93.6077C327.407 93.8598 326.873 94.1118 326.338 94.3638C326.212 94.0958 326.086 93.8287 325.96 93.5607C325.174 93.9313 324.388 94.302 323.602 94.6727C323.35 94.7913 323.099 94.9099 322.848 95.0285C322.706 94.7273 322.563 94.4261 322.421 94.1249C322.17 94.2436 321.918 94.3621 321.667 94.4808C321.541 94.2127 321.415 93.9456 321.288 93.6776C320.754 93.9297 320.219 94.1817 319.685 94.4337C319.559 94.1657 319.433 93.8986 319.306 93.6306C319.013 93.0729 318.713 92.5184 318.407 91.9683C318.187 92.0721 317.967 92.1759 317.747 92.2797C317.62 92.0116 317.494 91.7445 317.368 91.4765C316.302 91.9904 315.217 92.4613 314.114 92.8884C314.004 92.6545 313.893 92.4195 313.783 92.1856C312.966 92.4862 312.164 92.8238 311.378 93.1972C311.126 93.3158 310.875 93.4344 310.623 93.553C310.497 93.285 310.371 93.0179 310.245 92.7499C310.118 92.4818 309.992 92.2148 309.866 91.9467C309.614 92.0653 309.363 92.1839 309.111 92.3025C308.575 91.165 308.038 90.0266 307.501 88.8891C306.967 89.1411 306.433 89.3931 305.898 89.6452C305.772 89.3772 305.646 89.1101 305.519 88.842C305.268 88.9607 305.016 89.0792 304.765 89.1979C304.638 88.9298 304.512 88.6628 304.386 88.3947C303.566 88.7789 302.734 89.1312 301.887 89.4508C301.76 89.1827 301.634 88.9157 301.508 88.6476C301.256 88.7662 301.005 88.8848 300.754 89.0034C300.627 88.7354 300.501 88.4683 300.375 88.2003C299.589 88.5709 298.803 88.9416 298.017 89.3122C297.496 88.2079 296.975 87.1035 296.455 85.9992C296.706 85.8805 296.957 85.7619 297.209 85.6433C296.94 85.0741 296.672 84.5058 296.404 83.9366C296.277 83.6685 296.152 83.4015 296.025 83.1334C295.631 82.2971 295.236 81.4598 294.841 80.6235C294.59 80.7421 294.338 80.8607 294.087 80.9793C293.676 80.1089 293.266 79.2395 292.856 78.369C292.604 78.4876 292.353 78.6062 292.101 78.7249C291.975 78.4571 291.849 78.1894 291.722 77.9217C291.439 78.0551 291.157 78.1886 290.874 78.322C290.747 78.0542 290.621 77.7866 290.495 77.5188C289.948 77.745 289.397 77.9636 288.844 78.1746C288.734 77.9404 288.623 77.706 288.513 77.4718C287.724 77.8388 286.922 78.176 286.108 78.4834C285.982 78.2156 285.855 77.948 285.729 77.6802C283.623 78.6736 281.517 79.667 279.411 80.6603C279.159 80.779 278.908 80.8976 278.656 81.0162C278.53 80.7484 278.404 80.4808 278.278 80.213C278.026 80.3316 277.775 80.4502 277.523 80.5688C277.255 79.9999 276.986 79.4311 276.718 78.8621C276.184 79.1142 275.649 79.3662 275.115 79.6183C274.863 79.7369 274.612 79.8555 274.361 79.9741C274.234 79.7063 274.108 79.4387 273.982 79.1709C273.713 78.602 273.445 78.0331 273.177 77.4642C272.925 77.5828 272.674 77.7014 272.422 77.82C272.31 77.543 272.168 77.2826 271.996 77.0391C271.695 77.0652 271.412 77.1578 271.147 77.3168C271.037 77.0825 270.926 76.8482 270.816 76.614C270.297 76.8178 269.778 77.0215 269.26 77.2253C269.133 76.9575 269.007 76.6898 268.881 76.4221C267.529 77.0596 266.177 77.6972 264.826 78.3347C264.952 78.6025 265.078 78.8701 265.205 79.1379C264.466 79.2819 264.34 79.6683 264.829 80.2969C264.326 80.5341 263.823 80.7713 263.32 81.0086C263.21 80.7743 263.099 80.54 262.989 80.3058C261.931 78.0636 260.874 75.8214 259.816 73.5792C260.068 73.4606 260.319 73.342 260.57 73.2234C261.105 72.9713 261.639 72.7193 262.174 72.4672C262.032 72.166 261.889 71.8648 261.747 71.5637C262.533 71.193 263.319 70.8223 264.105 70.4517C263.979 70.1839 263.852 69.9163 263.726 69.6485C264.261 69.3964 264.795 69.1444 265.329 68.8923C264.877 68.0849 264.451 67.2631 264.051 66.4269C263.548 66.6641 263.045 66.9014 262.542 67.1386C262.4 66.8374 262.258 66.5362 262.116 66.235C261.864 65.6996 261.611 65.1641 261.358 64.6287C261.9 64.4107 262.403 64.1325 262.867 63.7944C262.015 61.8649 261.131 59.9499 260.215 58.0495C263.862 56.3296 267.508 54.6098 271.154 52.8899C271.281 53.1577 271.407 53.4253 271.533 53.6931C272.319 53.3224 273.105 52.9517 273.891 52.5811C274.017 52.8488 274.143 53.1165 274.27 53.3843C275.048 52.9966 275.842 52.6427 276.651 52.3225C276.852 52.5199 277.001 52.7561 277.1 53.031C277.603 52.7938 278.106 52.5565 278.609 52.3193C278.483 52.0515 278.357 51.7839 278.23 51.5161C279.268 51.0268 280.305 50.5376 281.342 50.0483C281.09 49.5129 280.837 48.9774 280.585 48.442C283.522 47.0888 286.429 45.6764 289.307 44.205C289.181 43.9372 289.055 43.6695 288.929 43.4018C289.18 43.2832 289.432 43.1646 289.683 43.046C289.415 42.477 289.146 41.9082 288.878 41.3392C288.752 41.0715 288.625 40.8038 288.499 40.536C289.034 40.284 289.568 40.032 290.102 39.7799C289.054 37.569 287.996 35.3677 286.93 33.176C286.374 33.3188 285.839 33.5299 285.326 33.8095C285.075 33.9281 284.824 34.0467 284.572 34.1653C284.446 33.8976 284.32 33.6299 284.193 33.3621C283.91 33.4956 283.627 33.629 283.345 33.7624C283.218 33.4947 283.092 33.227 282.966 32.9593C282.683 33.0927 282.4 33.2262 282.117 33.3596C281.975 33.0584 281.833 32.7572 281.691 32.456C281.471 32.5598 281.251 32.6636 281.031 32.7674C280.636 31.9308 280.241 31.0941 279.847 30.2575C280.098 30.1388 280.35 30.0203 280.601 29.9016C280.475 29.6339 280.349 29.3662 280.222 29.0985C280.474 28.9798 280.725 28.8613 280.977 28.7426C280.835 28.4414 280.693 28.1402 280.551 27.8391C280.834 27.7056 281.116 27.5722 281.399 27.4387C281.289 27.2045 281.178 26.9702 281.068 26.736C281.555 26.4653 282.042 26.1945 282.529 25.9239C282.403 25.6561 282.277 25.3885 282.151 25.1207C282.442 25.0174 282.693 24.858 282.905 24.6423C281.91 22.4116 280.884 20.1954 279.827 17.9938C280.078 17.8752 280.33 17.7566 280.581 17.638C280.186 16.8014 279.792 15.9647 279.397 15.1281C279.649 15.0095 279.9 14.8909 280.152 14.7723C280.025 14.5045 279.899 14.2368 279.773 13.9691C282.926 12.5059 286.054 10.9897 289.156 9.42073C289.006 9.16972 288.919 8.90391 288.895 8.62328C289.373 8.33642 289.868 8.08244 290.38 7.86141C290.254 7.59365 290.128 7.326 290.001 7.05824C291.824 6.19832 293.648 5.33835 295.471 4.47843C295.754 4.34499 296.037 4.21155 296.32 4.07811C296.588 4.64706 296.856 5.21591 297.125 5.78486C297.627 5.54765 298.131 5.31026 298.633 5.07318C298.76 5.34094 298.886 5.6086 299.012 5.87636C299.547 5.62416 300.081 5.3724 300.615 5.12021C300.742 5.38796 300.868 5.65562 300.994 5.92338C302.566 5.1819 304.137 4.44087 305.709 3.6994C305.583 3.43165 305.457 3.16399 305.331 2.89623C305.582 2.77747 305.833 2.65916 306.085 2.5404C305.959 2.27264 305.832 2.00498 305.706 1.73722C305.989 1.60378 306.272 1.47035 306.555 1.33691C306.16 0.500306 305.766 -0.3364 305.371 -1.173C305.632 -1.27619 305.875 -1.41127 306.102 -1.57904C306.078 -1.85989 305.99 -2.12556 305.841 -2.37649C306.061 -2.48013 306.281 -2.58421 306.501 -2.68785C305.835 -4.41953 305.046 -6.09284 304.133 -7.70768C303.899 -7.56424 303.647 -7.48647 303.379 -7.47448C303.08 -7.98665 302.811 -8.5145 302.574 -9.05858C304.659 -10.0909 306.766 -11.0846 308.892 -12.0387C308.75 -12.3399 308.608 -12.6411 308.466 -12.9423C308.718 -13.061 308.969 -13.1794 309.22 -13.2981C308.952 -13.8671 308.684 -14.4359 308.415 -15.0049C308.698 -15.1383 308.981 -15.2717 309.264 -15.4052C309.138 -15.6729 309.012 -15.9406 308.885 -16.2083C309.137 -16.3271 309.388 -16.4454 309.64 -16.5642C308.724 -18.5051 307.809 -20.4462 306.893 -22.3872C306.61 -22.2537 306.327 -22.1203 306.045 -21.9869C306.171 -21.7191 306.297 -21.4515 306.423 -21.1837C306.204 -21.0801 305.983 -20.976 305.763 -20.8723C304.851 -22.8577 303.889 -24.8174 302.875 -26.7513C302.623 -26.6325 302.372 -26.5142 302.121 -26.3954C301.994 -26.6632 301.868 -26.9308 301.742 -27.1986C301.49 -27.0798 301.239 -26.9615 300.987 -26.8428C300.467 -27.9471 299.946 -29.0515 299.425 -30.1558C302.82 -31.7571 306.215 -33.3584 309.609 -34.9596Z"/>
</mask>
<path fill-rule="evenodd" clip-rule="evenodd" d="M309.609 -34.9596C310.395 -35.3301 311.181 -35.7011 311.967 -36.0716C312.093 -35.8039 312.22 -35.5362 312.346 -35.2684C312.488 -34.9672 312.63 -34.6661 312.772 -34.3649C313.561 -32.6916 314.35 -31.0183 315.14 -29.345C314.637 -29.108 314.134 -28.8704 313.631 -28.6334C314.613 -26.357 315.64 -24.1001 316.709 -21.8623C316.961 -21.9811 317.212 -22.0994 317.464 -22.2182C317.716 -21.6827 317.969 -21.1472 318.221 -20.6118C318.504 -20.7452 318.787 -20.8787 319.07 -21.0121C319.353 -21.1456 319.636 -21.279 319.919 -21.4124C320.061 -21.1113 320.203 -20.8101 320.345 -20.5089C320.597 -20.6276 320.848 -20.7459 321.099 -20.8647C321.226 -20.5969 321.352 -20.3293 321.478 -20.0615C321.73 -20.1803 321.981 -20.2986 322.233 -20.4174C322.359 -20.1496 322.485 -19.882 322.611 -19.6142C322.754 -19.313 322.896 -19.0118 323.038 -18.7106C323.572 -18.9628 324.106 -19.2146 324.641 -19.4668C324.767 -19.199 324.893 -18.9314 325.02 -18.6636C325.271 -18.7824 325.522 -18.9007 325.774 -19.0194C326.295 -17.9151 326.816 -16.8107 327.337 -15.7064C327.583 -15.8425 327.841 -15.944 328.115 -16.012C328.316 -15.8148 328.466 -15.5784 328.564 -15.3035C328.799 -15.4469 329.05 -15.5247 329.319 -15.5367C329.618 -15.0245 329.887 -14.4967 330.124 -13.9526C330.626 -14.1897 331.13 -14.4272 331.633 -14.6643C331.939 -14.1142 332.239 -13.5599 332.532 -13.002C332.784 -13.1208 333.035 -13.2391 333.286 -13.3578C333.539 -12.8224 333.791 -12.2869 334.044 -11.7515C334.296 -11.8703 334.547 -11.9886 334.798 -12.1073C334.94 -11.8061 335.083 -11.505 335.225 -11.2038C335.476 -11.3225 335.727 -11.4408 335.979 -11.5596C336.092 -11.2512 336.258 -10.9819 336.476 -10.7507C337.285 -11.071 338.078 -11.4249 338.857 -11.8125C338.983 -11.5447 339.11 -11.2771 339.236 -11.0093C339.488 -11.1281 339.739 -11.2464 339.99 -11.3652C340.117 -11.0974 340.243 -10.8297 340.369 -10.562C340.621 -10.6807 340.872 -10.7991 341.124 -10.9178C341.266 -10.6166 341.408 -10.3154 341.55 -10.0142C341.802 -10.133 342.052 -10.2513 342.304 -10.3701C342.43 -10.1023 342.557 -9.83467 342.683 -9.56691C342.966 -9.70035 343.249 -9.83379 343.532 -9.96723C343.784 -10.086 344.034 -10.2043 344.286 -10.3231C344.807 -9.2187 345.328 -8.11434 345.849 -7.00998C346.101 -7.12874 346.351 -7.24705 346.603 -7.36581C347.056 -6.5582 347.482 -5.73671 347.881 -4.90038C348.133 -5.01914 348.384 -5.13746 348.636 -5.25622C348.778 -4.95503 348.92 -4.65384 349.062 -4.35265C349.314 -4.47141 349.565 -4.58972 349.816 -4.70848C350.18 -3.89705 350.574 -3.10143 351 -2.32121C351.269 -2.3332 351.52 -2.41096 351.755 -2.55441C351.853 -2.27946 352.003 -2.04314 352.204 -1.84591C352.478 -1.91389 352.736 -2.01543 352.982 -2.15155C353.234 -2.27031 353.485 -2.38862 353.737 -2.50738C353.863 -2.23963 353.989 -1.97197 354.115 -1.70421C354.65 -1.95641 355.184 -2.20817 355.719 -2.46036C355.987 -1.89141 356.255 -1.32257 356.524 -0.753618C356.775 -0.872381 357.026 -0.990694 357.278 -1.10946C357.404 -0.841699 357.531 -0.574041 357.657 -0.306283C358.192 -0.55848 358.725 -0.810234 359.26 -1.06243C359.402 -0.761248 359.544 -0.460058 359.686 -0.158868C359.969 -0.292305 360.252 -0.425743 360.535 -0.559181C360.661 -0.291423 360.788 -0.0237652 360.914 0.243993C361.166 0.12523 361.416 0.00691691 361.668 -0.111846C361.937 0.457102 362.205 1.02595 362.473 1.59489C362.725 1.47614 362.976 1.35782 363.228 1.23906C363.496 1.80801 363.764 2.37686 364.033 2.9458C364.284 2.82704 364.535 2.70873 364.787 2.58997C365.283 3.6676 365.819 4.72385 366.397 5.75818C366.915 5.55454 367.435 5.35055 367.953 5.1469C368.474 6.25126 368.995 7.35563 369.516 8.45999C369.264 8.57875 369.013 8.69707 368.761 8.81583C368.903 9.11701 369.045 9.41821 369.187 9.71939C369.439 9.60063 369.69 9.48232 369.942 9.36356C370.336 10.2002 370.731 11.0369 371.126 11.8735C371.377 11.7547 371.628 11.6364 371.88 11.5176C372.006 11.7854 372.133 12.0531 372.259 12.3208C373.076 11.9352 373.893 11.55 374.711 11.1643C374.584 10.8966 374.458 10.6289 374.332 10.3612C374.835 10.1241 375.338 9.88657 375.841 9.6495C375.967 9.91726 376.093 10.1849 376.22 10.4527C376.754 10.2005 377.288 9.94872 377.823 9.69652C377.949 9.96427 378.075 10.2319 378.202 10.4997C378.738 11.6375 379.275 12.7754 379.812 13.9132C380.063 13.7944 380.314 13.6761 380.566 13.5573C380.834 14.1263 381.103 14.6951 381.371 15.2641C381.623 15.1453 381.874 15.027 382.125 14.9082C382.631 15.9792 383.136 17.05 383.641 18.1209C383.154 18.3914 382.666 18.6625 382.179 18.933C382.432 19.4684 382.684 20.0039 382.937 20.5393C382.675 20.6425 382.433 20.7776 382.206 20.9454C382.23 21.2262 382.318 21.4919 382.467 21.7428C382.207 21.8325 381.987 21.9771 381.807 22.1768C382.281 23.3029 382.785 24.4148 383.323 25.5122C383.857 25.26 384.391 25.0082 384.926 24.756C385.194 25.3249 385.462 25.8938 385.731 26.4627C385.983 26.344 386.233 26.2257 386.485 26.1069C386.754 26.6759 387.022 27.2447 387.29 27.8137C387.542 27.6949 387.793 27.5766 388.045 27.4578C388.351 28.0079 388.651 28.5622 388.944 29.1201C389.196 29.0013 389.447 28.883 389.698 28.7642C389.825 29.032 389.951 29.2997 390.077 29.5674C390.329 29.4487 390.58 29.3303 390.832 29.2116C390.93 29.4865 391.08 29.7228 391.281 29.9201C391.555 29.8521 391.813 29.7506 392.059 29.6144C392.185 29.8822 392.312 30.1499 392.438 30.4176C392.69 30.2989 392.941 30.1805 393.192 30.0618C393.335 30.363 393.477 30.6641 393.619 30.9653C393.87 30.8466 394.121 30.7283 394.373 30.6095C394.499 30.8776 394.625 31.1446 394.752 31.4127C395.035 31.2792 395.318 31.1458 395.601 31.0124C395.852 30.8936 396.103 30.7753 396.355 30.6565C396.481 30.9246 396.607 31.1916 396.734 31.4597C396.876 31.7609 397.018 32.0621 397.16 32.3633C397.412 32.2445 397.663 32.1262 397.914 32.0074C398.435 33.1118 398.956 34.2162 399.477 35.3205C399.729 35.2018 399.98 35.0834 400.232 34.9647C400.339 35.2686 400.497 35.5205 400.705 35.7234C400.973 36.2926 401.241 36.8609 401.51 37.4301C401.761 37.3114 402.012 37.193 402.264 37.0743C402.391 37.3423 402.517 37.6094 402.643 37.8775C402.895 37.7587 403.146 37.6404 403.397 37.5216C403.69 38.0793 403.99 38.6339 404.297 39.1839C402.694 39.94 401.09 40.6962 399.487 41.4523C399.756 42.0216 400.024 42.5898 400.292 43.1591C400.04 43.2778 399.79 43.3962 399.538 43.5149C399.664 43.783 399.79 44.05 399.917 44.3181C400.453 45.4556 400.99 46.5941 401.527 47.7316C401.779 48.2667 402.032 48.8028 402.284 49.3379C403.054 51.0219 403.876 52.6804 404.746 54.3133C405.327 53.8342 405.706 53.9835 405.88 54.7606C406.114 54.617 406.365 54.5389 406.634 54.5274C407.328 55.8766 407.992 57.2414 408.623 58.6214C408.088 58.8736 407.554 59.1254 407.02 59.3776C407.146 59.6456 407.272 59.9127 407.399 60.1807C404.538 61.5298 401.677 62.8793 398.817 64.2284C398.707 63.9945 398.596 63.7595 398.485 63.5256C397.951 63.7778 397.417 64.0296 396.882 64.2817C397.009 64.5498 397.135 64.8169 397.261 65.0849C396.726 65.3371 396.193 65.5889 395.658 65.8411C395.91 66.3762 396.163 66.9123 396.416 67.4474C395.881 67.6996 395.347 67.9514 394.812 68.2036C394.955 68.5048 395.097 68.8059 395.239 69.1071C394.987 69.2259 394.736 69.3442 394.484 69.463C394.611 69.731 394.737 69.9981 394.863 70.2661C393.291 71.0076 391.72 71.7486 390.148 72.4901C390.274 72.7582 390.4 73.0252 390.527 73.2933C390.235 73.3964 389.985 73.5564 389.773 73.7718C390.105 74.5982 390.5 75.3938 390.956 76.159C389.925 76.7389 388.872 77.2759 387.797 77.7717C387.908 78.0057 388.018 78.2406 388.129 78.4745C387.614 78.7674 387.095 79.0528 386.573 79.3311C386.699 79.5991 386.825 79.8662 386.952 80.1342C386.7 80.253 386.449 80.3713 386.197 80.4901C386.466 81.0593 386.734 81.6276 387.002 82.1968C386.719 82.3302 386.436 82.4637 386.154 82.5971C386.28 82.8652 386.406 83.1322 386.532 83.4003C386.313 83.5039 386.092 83.608 385.872 83.7117C386.125 84.2468 386.378 84.7829 386.63 85.318C386.864 85.1744 387.116 85.0963 387.385 85.0848C387.557 85.3286 387.698 85.5885 387.811 85.8657C388.898 85.4029 389.983 84.9321 391.064 84.4538C391.175 84.6877 391.285 84.9227 391.396 85.1566C391.914 84.9527 392.434 84.7493 392.952 84.5453C393.204 85.0804 393.457 85.6166 393.71 86.1517C393.458 86.2704 393.207 86.3888 392.955 86.5075C393.538 87.9484 394.169 89.3691 394.85 90.7686C394.598 90.8874 394.347 91.0057 394.095 91.1245C394.222 91.3925 394.348 91.6596 394.474 91.9277C394.743 92.4969 395.011 93.0651 395.279 93.6344C394.776 93.8715 394.273 94.109 393.77 94.3461C393.236 94.5983 392.702 94.85 392.167 95.1022C392.294 95.3703 392.419 95.6373 392.546 95.9054C391.226 96.5281 389.905 97.1508 388.585 97.7735C388.712 98.0416 388.838 98.3086 388.964 98.5767C388.396 98.8052 387.878 99.0901 387.408 99.4332C387.156 99.552 386.906 99.6703 386.654 99.7891C386.78 100.057 386.906 100.324 387.033 100.592C386.781 100.711 386.53 100.829 386.278 100.948C386.959 102.348 387.59 103.768 388.173 105.209C387.953 105.313 387.732 105.417 387.513 105.521C387.742 106.107 387.979 106.691 388.223 107.272C388.475 107.153 388.726 107.035 388.978 106.916C389.215 107.46 389.483 107.988 389.783 108.5C390.084 108.473 390.367 108.382 390.631 108.222C390.742 108.456 390.853 108.691 390.963 108.925C391.749 108.552 392.551 108.214 393.368 107.914C393.62 108.449 393.873 108.985 394.126 109.52C394.911 109.149 395.698 108.778 396.483 108.408C396.625 108.709 396.767 109.01 396.909 109.312C397.161 109.193 397.412 109.074 397.664 108.956C398.057 109.795 398.483 110.617 398.942 111.421C399.162 111.317 399.382 111.213 399.602 111.11C400.196 112.182 400.716 113.287 401.165 114.423C400.945 114.526 400.724 114.631 400.505 114.734C401.087 116.175 401.718 117.596 402.399 118.995C402.147 119.114 401.896 119.232 401.645 119.351C401.771 119.619 401.897 119.886 402.024 120.154C401.772 120.273 401.521 120.391 401.269 120.51C401.975 122.22 402.733 123.909 403.542 125.574C403.283 125.664 403.062 125.808 402.883 126.008C403.087 126.565 403.324 127.109 403.593 127.637C403.719 127.905 403.845 128.172 403.972 128.44C403.72 128.559 403.469 128.677 403.217 128.796C402.956 128.9 402.713 129.034 402.487 129.202C402.511 129.483 402.598 129.749 402.748 130C402.488 130.089 402.268 130.233 402.088 130.434C402.561 131.559 403.066 132.671 403.603 133.769C403.101 134.006 402.597 134.243 402.094 134.481C401.2 132.528 400.252 130.602 399.253 128.702C399.019 128.846 398.768 128.924 398.499 128.935C398.326 128.691 398.185 128.431 398.073 128.154C397.57 128.391 397.067 128.629 396.564 128.866C396.438 128.598 396.312 128.331 396.185 128.063C395.902 128.196 395.619 128.33 395.336 128.463C395.21 128.195 395.084 127.928 394.958 127.66C394.706 127.779 394.455 127.897 394.203 128.016C393.935 127.447 393.667 126.878 393.398 126.309C392.864 126.561 392.33 126.813 391.795 127.065C391.26 127.317 390.727 127.569 390.192 127.821C390.065 127.553 389.94 127.286 389.813 127.018C388.486 127.541 387.181 128.116 385.899 128.741C385.773 128.473 385.647 128.206 385.52 127.938C385.238 128.072 384.955 128.205 384.672 128.339C384.545 128.07 384.419 127.803 384.293 127.535C383.775 127.739 383.255 127.943 382.737 128.147C382.626 127.913 382.516 127.678 382.405 127.444C381.085 128.067 379.765 128.689 378.445 129.312C378.555 129.546 378.666 129.781 378.776 130.015C377.731 130.493 376.709 131.015 375.711 131.583C375.838 131.851 375.964 132.118 376.09 132.386C375.807 132.52 375.524 132.653 375.241 132.787C374.739 133.024 374.235 133.261 373.733 133.498C373.339 132.659 372.914 131.837 372.454 131.033C372.203 131.151 371.952 131.27 371.7 131.389C371.574 131.121 371.448 130.853 371.321 130.585C371.053 130.016 370.785 129.448 370.516 128.879C370.264 128.997 370.014 129.116 369.762 129.235C369.635 128.966 369.509 128.699 369.383 128.431C369.131 128.55 368.88 128.668 368.629 128.787C368.486 128.486 368.344 128.185 368.202 127.884C367.668 128.136 367.134 128.388 366.599 128.64C366.473 128.372 366.347 128.105 366.22 127.837C365.969 127.955 365.718 128.074 365.466 128.192C365.197 127.623 364.929 127.055 364.661 126.486C364.378 126.619 364.095 126.753 363.812 126.886C363.686 126.618 363.56 126.351 363.433 126.083C363.182 126.202 362.931 126.32 362.679 126.439C362.41 125.869 362.142 125.301 361.874 124.732C361.622 124.851 361.371 124.969 361.119 125.088C360.72 124.251 360.294 123.43 359.841 122.622C359.59 122.741 359.339 122.859 359.087 122.978C358.96 122.71 358.835 122.443 358.708 122.175C358.456 122.294 358.205 122.412 357.954 122.531C357.812 122.23 357.67 121.928 357.527 121.627C357.007 120.523 356.486 119.419 355.965 118.314C356.467 118.077 356.971 117.84 357.474 117.602C356.906 116.19 356.274 114.81 355.579 113.464C355.278 113.491 354.995 113.582 354.73 113.742C354.604 113.474 354.478 113.207 354.352 112.938C354.1 113.057 353.849 113.176 353.597 113.294C353.455 112.993 353.313 112.692 353.171 112.391C352.134 112.88 351.096 113.369 350.059 113.859C349.933 113.591 349.807 113.323 349.68 113.055C349.397 113.189 349.114 113.322 348.831 113.456C348.705 113.188 348.579 112.921 348.453 112.653C348.17 112.786 347.887 112.919 347.604 113.053C347.462 112.752 347.32 112.45 347.178 112.149C346.958 112.253 346.738 112.357 346.518 112.461C346.391 112.193 346.265 111.926 346.139 111.657C345.856 111.791 345.573 111.924 345.29 112.058C345.038 111.523 344.785 110.987 344.532 110.451C344.014 110.656 343.495 110.859 342.976 111.063C342.724 110.528 342.471 109.991 342.218 109.456C342.438 109.353 342.659 109.249 342.879 109.145C342.752 108.877 342.626 108.61 342.5 108.342C342.28 108.446 342.06 108.549 341.84 108.653C341.311 107.51 340.743 106.387 340.135 105.284C339.884 105.403 339.632 105.521 339.381 105.64C339.129 105.759 338.878 105.877 338.626 105.996C337.174 102.917 335.722 99.8385 334.27 96.7594C333.875 95.9231 333.481 95.0858 333.086 94.2495C332.835 94.3681 332.583 94.4867 332.332 94.6053C332.205 94.3372 332.079 94.0702 331.953 93.8021C331.67 93.9356 331.387 94.069 331.104 94.2025C330.978 93.9344 330.852 93.6673 330.725 93.3993C330.207 93.6034 329.688 93.8065 329.169 94.0106C329.043 93.7425 328.917 93.4754 328.79 93.2074C328.507 93.3408 328.224 93.4743 327.942 93.6077C327.407 93.8598 326.873 94.1118 326.338 94.3638C326.212 94.0958 326.086 93.8287 325.96 93.5607C325.174 93.9313 324.388 94.302 323.602 94.6727C323.35 94.7913 323.099 94.9099 322.848 95.0285C322.706 94.7273 322.563 94.4261 322.421 94.1249C322.17 94.2436 321.918 94.3621 321.667 94.4808C321.541 94.2127 321.415 93.9456 321.288 93.6776C320.754 93.9297 320.219 94.1817 319.685 94.4337C319.559 94.1657 319.433 93.8986 319.306 93.6306C319.013 93.0729 318.713 92.5184 318.407 91.9683C318.187 92.0721 317.967 92.1759 317.747 92.2797C317.62 92.0116 317.494 91.7445 317.368 91.4765C316.302 91.9904 315.217 92.4613 314.114 92.8884C314.004 92.6545 313.893 92.4195 313.783 92.1856C312.966 92.4862 312.164 92.8238 311.378 93.1972C311.126 93.3158 310.875 93.4344 310.623 93.553C310.497 93.285 310.371 93.0179 310.245 92.7499C310.118 92.4818 309.992 92.2148 309.866 91.9467C309.614 92.0653 309.363 92.1839 309.111 92.3025C308.575 91.165 308.038 90.0266 307.501 88.8891C306.967 89.1411 306.433 89.3931 305.898 89.6452C305.772 89.3772 305.646 89.1101 305.519 88.842C305.268 88.9607 305.016 89.0792 304.765 89.1979C304.638 88.9298 304.512 88.6628 304.386 88.3947C303.566 88.7789 302.734 89.1312 301.887 89.4508C301.76 89.1827 301.634 88.9157 301.508 88.6476C301.256 88.7662 301.005 88.8848 300.754 89.0034C300.627 88.7354 300.501 88.4683 300.375 88.2003C299.589 88.5709 298.803 88.9416 298.017 89.3122C297.496 88.2079 296.975 87.1035 296.455 85.9992C296.706 85.8805 296.957 85.7619 297.209 85.6433C296.94 85.0741 296.672 84.5058 296.404 83.9366C296.277 83.6685 296.152 83.4015 296.025 83.1334C295.631 82.2971 295.236 81.4598 294.841 80.6235C294.59 80.7421 294.338 80.8607 294.087 80.9793C293.676 80.1089 293.266 79.2395 292.856 78.369C292.604 78.4876 292.353 78.6062 292.101 78.7249C291.975 78.4571 291.849 78.1894 291.722 77.9217C291.439 78.0551 291.157 78.1886 290.874 78.322C290.747 78.0542 290.621 77.7866 290.495 77.5188C289.948 77.745 289.397 77.9636 288.844 78.1746C288.734 77.9404 288.623 77.706 288.513 77.4718C287.724 77.8388 286.922 78.176 286.108 78.4834C285.982 78.2156 285.855 77.948 285.729 77.6802C283.623 78.6736 281.517 79.667 279.411 80.6603C279.159 80.779 278.908 80.8976 278.656 81.0162C278.53 80.7484 278.404 80.4808 278.278 80.213C278.026 80.3316 277.775 80.4502 277.523 80.5688C277.255 79.9999 276.986 79.4311 276.718 78.8621C276.184 79.1142 275.649 79.3662 275.115 79.6183C274.863 79.7369 274.612 79.8555 274.361 79.9741C274.234 79.7063 274.108 79.4387 273.982 79.1709C273.713 78.602 273.445 78.0331 273.177 77.4642C272.925 77.5828 272.674 77.7014 272.422 77.82C272.31 77.543 272.168 77.2826 271.996 77.0391C271.695 77.0652 271.412 77.1578 271.147 77.3168C271.037 77.0825 270.926 76.8482 270.816 76.614C270.297 76.8178 269.778 77.0215 269.26 77.2253C269.133 76.9575 269.007 76.6898 268.881 76.4221C267.529 77.0596 266.177 77.6972 264.826 78.3347C264.952 78.6025 265.078 78.8701 265.205 79.1379C264.466 79.2819 264.34 79.6683 264.829 80.2969C264.326 80.5341 263.823 80.7713 263.32 81.0086C263.21 80.7743 263.099 80.54 262.989 80.3058C261.931 78.0636 260.874 75.8214 259.816 73.5792C260.068 73.4606 260.319 73.342 260.57 73.2234C261.105 72.9713 261.639 72.7193 262.174 72.4672C262.032 72.166 261.889 71.8648 261.747 71.5637C262.533 71.193 263.319 70.8223 264.105 70.4517C263.979 70.1839 263.852 69.9163 263.726 69.6485C264.261 69.3964 264.795 69.1444 265.329 68.8923C264.877 68.0849 264.451 67.2631 264.051 66.4269C263.548 66.6641 263.045 66.9014 262.542 67.1386C262.4 66.8374 262.258 66.5362 262.116 66.235C261.864 65.6996 261.611 65.1641 261.358 64.6287C261.9 64.4107 262.403 64.1325 262.867 63.7944C262.015 61.8649 261.131 59.9499 260.215 58.0495C263.862 56.3296 267.508 54.6098 271.154 52.8899C271.281 53.1577 271.407 53.4253 271.533 53.6931C272.319 53.3224 273.105 52.9517 273.891 52.5811C274.017 52.8488 274.143 53.1165 274.27 53.3843C275.048 52.9966 275.842 52.6427 276.651 52.3225C276.852 52.5199 277.001 52.7561 277.1 53.031C277.603 52.7938 278.106 52.5565 278.609 52.3193C278.483 52.0515 278.357 51.7839 278.23 51.5161C279.268 51.0268 280.305 50.5376 281.342 50.0483C281.09 49.5129 280.837 48.9774 280.585 48.442C283.522 47.0888 286.429 45.6764 289.307 44.205C289.181 43.9372 289.055 43.6695 288.929 43.4018C289.18 43.2832 289.432 43.1646 289.683 43.046C289.415 42.477 289.146 41.9082 288.878 41.3392C288.752 41.0715 288.625 40.8038 288.499 40.536C289.034 40.284 289.568 40.032 290.102 39.7799C289.054 37.569 287.996 35.3677 286.93 33.176C286.374 33.3188 285.839 33.5299 285.326 33.8095C285.075 33.9281 284.824 34.0467 284.572 34.1653C284.446 33.8976 284.32 33.6299 284.193 33.3621C283.91 33.4956 283.627 33.629 283.345 33.7624C283.218 33.4947 283.092 33.227 282.966 32.9593C282.683 33.0927 282.4 33.2262 282.117 33.3596C281.975 33.0584 281.833 32.7572 281.691 32.456C281.471 32.5598 281.251 32.6636 281.031 32.7674C280.636 31.9308 280.241 31.0941 279.847 30.2575C280.098 30.1388 280.35 30.0203 280.601 29.9016C280.475 29.6339 280.349 29.3662 280.222 29.0985C280.474 28.9798 280.725 28.8613 280.977 28.7426C280.835 28.4414 280.693 28.1402 280.551 27.8391C280.834 27.7056 281.116 27.5722 281.399 27.4387C281.289 27.2045 281.178 26.9702 281.068 26.736C281.555 26.4653 282.042 26.1945 282.529 25.9239C282.403 25.6561 282.277 25.3885 282.151 25.1207C282.442 25.0174 282.693 24.858 282.905 24.6423C281.91 22.4116 280.884 20.1954 279.827 17.9938C280.078 17.8752 280.33 17.7566 280.581 17.638C280.186 16.8014 279.792 15.9647 279.397 15.1281C279.649 15.0095 279.9 14.8909 280.152 14.7723C280.025 14.5045 279.899 14.2368 279.773 13.9691C282.926 12.5059 286.054 10.9897 289.156 9.42073C289.006 9.16972 288.919 8.90391 288.895 8.62328C289.373 8.33642 289.868 8.08244 290.38 7.86141C290.254 7.59365 290.128 7.326 290.001 7.05824C291.824 6.19832 293.648 5.33835 295.471 4.47843C295.754 4.34499 296.037 4.21155 296.32 4.07811C296.588 4.64706 296.856 5.21591 297.125 5.78486C297.627 5.54765 298.131 5.31026 298.633 5.07318C298.76 5.34094 298.886 5.6086 299.012 5.87636C299.547 5.62416 300.081 5.3724 300.615 5.12021C300.742 5.38796 300.868 5.65562 300.994 5.92338C302.566 5.1819 304.137 4.44087 305.709 3.6994C305.583 3.43165 305.457 3.16399 305.331 2.89623C305.582 2.77747 305.833 2.65916 306.085 2.5404C305.959 2.27264 305.832 2.00498 305.706 1.73722C305.989 1.60378 306.272 1.47035 306.555 1.33691C306.16 0.500306 305.766 -0.3364 305.371 -1.173C305.632 -1.27619 305.875 -1.41127 306.102 -1.57904C306.078 -1.85989 305.99 -2.12556 305.841 -2.37649C306.061 -2.48013 306.281 -2.58421 306.501 -2.68785C305.835 -4.41953 305.046 -6.09284 304.133 -7.70768C303.899 -7.56424 303.647 -7.48647 303.379 -7.47448C303.08 -7.98665 302.811 -8.5145 302.574 -9.05858C304.659 -10.0909 306.766 -11.0846 308.892 -12.0387C308.75 -12.3399 308.608 -12.6411 308.466 -12.9423C308.718 -13.061 308.969 -13.1794 309.22 -13.2981C308.952 -13.8671 308.684 -14.4359 308.415 -15.0049C308.698 -15.1383 308.981 -15.2717 309.264 -15.4052C309.138 -15.6729 309.012 -15.9406 308.885 -16.2083C309.137 -16.3271 309.388 -16.4454 309.64 -16.5642C308.724 -18.5051 307.809 -20.4462 306.893 -22.3872C306.61 -22.2537 306.327 -22.1203 306.045 -21.9869C306.171 -21.7191 306.297 -21.4515 306.423 -21.1837C306.204 -21.0801 305.983 -20.976 305.763 -20.8723C304.851 -22.8577 303.889 -24.8174 302.875 -26.7513C302.623 -26.6325 302.372 -26.5142 302.121 -26.3954C301.994 -26.6632 301.868 -26.9308 301.742 -27.1986C301.49 -27.0798 301.239 -26.9615 300.987 -26.8428C300.467 -27.9471 299.946 -29.0515 299.425 -30.1558C302.82 -31.7571 306.215 -33.3584 309.609 -34.9596Z" fill="#C4C4C4" stroke="#C4C4C4" stroke-width="2" mask="url(#path-13-inside-1_175_1693)"/>
<path d="M306.232 54C306.645 54 306.998 53.853 307.292 53.559C307.586 53.265 307.733 52.912 307.732 52.5C307.732 52.0875 307.585 51.7342 307.291 51.4402C306.997 51.1462 306.644 50.9995 306.232 51C305.82 51 305.467 51.147 305.173 51.441C304.879 51.735 304.732 52.088 304.732 52.5C304.732 52.9125 304.879 53.2657 305.173 53.5597C305.467 53.8537 305.82 54.0005 306.232 54ZM306.232 59.5125C307.757 58.1125 308.889 56.8405 309.626 55.6965C310.364 54.5525 310.732 53.537 310.732 52.65C310.732 51.2875 310.298 50.172 309.429 49.3035C308.56 48.435 307.494 48.0005 306.232 48C304.97 48 303.904 48.4345 303.035 49.3035C302.166 50.1725 301.732 51.288 301.732 52.65C301.732 53.5375 302.101 54.5532 302.839 55.6972C303.576 56.8412 304.707 58.113 306.232 59.5125ZM306.232 61.5C304.22 59.7875 302.717 58.197 301.723 56.7285C300.73 55.26 300.233 53.9005 300.232 52.65C300.232 50.775 300.836 49.2812 302.042 48.1687C303.249 47.0562 304.645 46.5 306.232 46.5C307.82 46.5 309.217 47.0562 310.423 48.1687C311.63 49.2812 312.233 50.775 312.232 52.65C312.232 53.9 311.735 55.2595 310.741 56.7285C309.747 58.1975 308.244 59.788 306.232 61.5Z" fill="#333333"/>
<path d="M315.988 52.6H318.916C320.644 52.6 321.856 53.824 321.856 55.36C321.856 56.908 320.644 58.132 318.916 58.132H317.692V61H315.988V52.6ZM317.692 56.716H318.736C319.54 56.716 320.152 56.164 320.152 55.372C320.152 54.604 319.54 54.052 318.736 54.052H317.692V56.716ZM325.638 61.156C323.994 61.156 322.818 60.088 322.818 58.552V54.928H324.498V58.432C324.498 59.212 324.978 59.668 325.638 59.668C326.298 59.668 326.766 59.212 326.766 58.432V54.928H328.446V58.552C328.446 60.088 327.282 61.156 325.638 61.156ZM331.484 61H329.804V54.916H331.484V55.876C331.784 55.24 332.492 54.844 333.452 54.844H333.68V56.44H333.152C332.108 56.44 331.484 57.064 331.484 58.396V61ZM339.516 55.12L340.836 58.84L342.048 54.928H343.812L341.748 61.036H340.128L338.88 57.448L337.632 61.036H336.012L333.948 54.928H335.712L336.924 58.84L338.244 55.12H339.516ZM347.37 61.156C345.498 61.156 344.046 59.74 344.046 57.952C344.046 56.176 345.498 54.772 347.37 54.772C349.242 54.772 350.694 56.176 350.694 57.952C350.694 59.74 349.242 61.156 347.37 61.156ZM347.37 59.656C348.294 59.656 349.038 58.912 349.038 57.952C349.038 57.004 348.294 56.272 347.37 56.272C346.434 56.272 345.702 57.004 345.702 57.952C345.702 58.912 346.434 59.656 347.37 59.656ZM355.124 57.784L357.632 61H355.604L353.456 58.132V61H351.776V52.48H353.456V57.556L355.508 54.928H357.452L355.124 57.784ZM360.965 61.156C358.961 61.156 357.569 59.74 357.569 57.952C357.569 56.14 358.985 54.784 360.845 54.784C362.705 54.784 364.073 56.152 364.073 57.94C364.073 58.156 364.049 58.336 364.013 58.516H359.213C359.297 59.176 359.969 59.776 360.953 59.776C361.733 59.776 362.285 59.428 362.609 58.948L363.809 59.668C363.281 60.604 362.237 61.156 360.965 61.156ZM359.213 57.28H362.489C362.369 56.716 361.745 56.152 360.845 56.152C359.969 56.152 359.333 56.716 359.213 57.28ZM366.827 61H365.147V54.916H366.827V55.876C367.127 55.24 367.835 54.844 368.795 54.844H369.023V56.44H368.495C367.451 56.44 366.827 57.064 366.827 58.396V61ZM372.484 54.928H373.816V56.32H372.484V61H370.804V56.32H369.472V54.928H370.804V53.02H372.484V54.928ZM377.592 61.156C375.72 61.156 374.268 59.74 374.268 57.952C374.268 56.176 375.72 54.772 377.592 54.772C379.464 54.772 380.916 56.176 380.916 57.952C380.916 59.74 379.464 61.156 377.592 61.156ZM377.592 59.656C378.516 59.656 379.26 58.912 379.26 57.952C379.26 57.004 378.516 56.272 377.592 56.272C376.656 56.272 375.924 57.004 375.924 57.952C375.924 58.912 376.656 59.656 377.592 59.656Z" fill="#333333"/>
</g>
</svg>
