<svg width="51" height="50" viewBox="0 0 51 50" fill="none" xmlns="http://www.w3.org/2000/svg">
<circle cx="25.5" cy="25" r="25" fill="#DFDBDB"/>
<path d="M29 34C27.3375 34 26 32.6125 26 30.8875C26 29.1625 27.3375 27.775 29 27.775C29.3784 27.7721 29.7532 27.8487 30.1 28C30.2892 27.0731 30.7375 26.2189 31.3928 25.5366C32.0481 24.8542 32.8835 24.3718 33.8021 24.1454C34.7206 23.9189 35.6845 23.9577 36.5819 24.2572C37.4793 24.5567 38.2732 25.1046 38.8716 25.8373C39.47 26.5701 39.8483 27.4575 39.9624 28.3966C40.0766 29.3358 39.922 30.288 39.5166 31.1427C39.1112 31.9975 38.4716 32.7197 37.6721 33.2255C36.8726 33.7312 35.946 33.9998 35 34H29Z" stroke="#777777" stroke-width="1.5" stroke-linecap="round" stroke-linejoin="round"/>
<path d="M12 31V29C12.0012 26.6418 12.6973 24.3363 14.0011 22.3714C15.3049 20.4065 17.1588 18.8693 19.3312 17.9518C21.5035 17.0343 23.8981 16.7772 26.2157 17.2126C28.5333 17.648 30.6712 18.7566 32.3625 20.4" stroke="#777777" stroke-width="1.5" stroke-linecap="round" stroke-linejoin="round"/>
<path d="M16 31V29C15.9993 27.5206 16.4089 26.07 17.1832 24.8094C17.9574 23.5488 19.0661 22.5276 20.3859 21.8593C21.7057 21.191 23.185 20.9017 24.6594 21.0236C26.1337 21.1456 27.5454 21.6739 28.7375 22.55" stroke="#777777" stroke-width="1.5" stroke-linecap="round" stroke-linejoin="round"/>
<path d="M20 31V29C20 27.9392 20.4214 26.9217 21.1716 26.1716C21.9217 25.4215 22.9391 25 24 25C24.3118 24.9989 24.6225 25.0367 24.925 25.1125" stroke="#777777" stroke-width="1.5" stroke-linecap="round" stroke-linejoin="round"/>
</svg>
