<svg width="1271" height="243" viewBox="0 0 1271 243" fill="none" xmlns="http://www.w3.org/2000/svg">
<mask id="mask0_82_1782" style="mask-type:alpha" maskUnits="userSpaceOnUse" x="0" y="0" width="1271" height="243">
<rect width="1271" height="243" rx="20" fill="#D9D9D9"/>
</mask>
<g mask="url(#mask0_82_1782)">
<rect width="1271" height="243" rx="20" fill="#F3F3F3"/>
<path d="M72.205 50.5H80.745C85.785 50.5 89.32 54.07 89.32 58.55C89.32 63.065 85.785 66.635 80.745 66.635H77.175V75H72.205V50.5ZM77.175 62.505H80.22C82.565 62.505 84.35 60.895 84.35 58.585C84.35 56.345 82.565 54.735 80.22 54.735H77.175V62.505ZM100.349 75.455C95.5544 75.455 92.1244 72.34 92.1244 67.86V57.29H97.0244V67.51C97.0244 69.785 98.4244 71.115 100.349 71.115C102.274 71.115 103.639 69.785 103.639 67.51V57.29H108.539V67.86C108.539 72.34 105.144 75.455 100.349 75.455ZM117.4 75H112.5V57.255H117.4V60.055C118.275 58.2 120.34 57.045 123.14 57.045H123.805V61.7H122.265C119.22 61.7 117.4 63.52 117.4 67.405V75ZM140.827 57.85L144.677 68.7L148.212 57.29H153.357L147.337 75.105H142.612L138.972 64.64L135.332 75.105H130.607L124.587 57.29H129.732L133.267 68.7L137.117 57.85H140.827ZM163.734 75.455C158.274 75.455 154.039 71.325 154.039 66.11C154.039 60.93 158.274 56.835 163.734 56.835C169.194 56.835 173.429 60.93 173.429 66.11C173.429 71.325 169.194 75.455 163.734 75.455ZM163.734 71.08C166.429 71.08 168.599 68.91 168.599 66.11C168.599 63.345 166.429 61.21 163.734 61.21C161.004 61.21 158.869 63.345 158.869 66.11C158.869 68.91 161.004 71.08 163.734 71.08ZM186.351 65.62L193.666 75H187.751L181.486 66.635V75H176.586V50.15H181.486V64.955L187.471 57.29H193.141L186.351 65.62ZM203.387 75.455C197.542 75.455 193.482 71.325 193.482 66.11C193.482 60.825 197.612 56.87 203.037 56.87C208.462 56.87 212.452 60.86 212.452 66.075C212.452 66.705 212.382 67.23 212.277 67.755H198.277C198.522 69.68 200.482 71.43 203.352 71.43C205.627 71.43 207.237 70.415 208.182 69.015L211.682 71.115C210.142 73.845 207.097 75.455 203.387 75.455ZM198.277 64.15H207.832C207.482 62.505 205.662 60.86 203.037 60.86C200.482 60.86 198.627 62.505 198.277 64.15ZM220.486 75H215.586V57.255H220.486V60.055C221.361 58.2 223.426 57.045 226.226 57.045H226.891V61.7H225.351C222.306 61.7 220.486 63.52 220.486 67.405V75ZM236.983 57.29H240.868V61.35H236.983V75H232.083V61.35H228.198V57.29H232.083V51.725H236.983V57.29ZM251.884 75.455C246.424 75.455 242.189 71.325 242.189 66.11C242.189 60.93 246.424 56.835 251.884 56.835C257.344 56.835 261.579 60.93 261.579 66.11C261.579 71.325 257.344 75.455 251.884 75.455ZM251.884 71.08C254.579 71.08 256.749 68.91 256.749 66.11C256.749 63.345 254.579 61.21 251.884 61.21C249.154 61.21 247.019 63.345 247.019 66.11C247.019 68.91 249.154 71.08 251.884 71.08Z" fill="#333333"/>
<path d="M186.15 183.3C180.925 183.3 176.95 179.35 176.95 174.25C176.95 169.15 180.925 165.2 186.15 165.2C191.375 165.2 195.325 169.15 195.325 174.25C195.325 179.35 191.375 183.3 186.15 183.3ZM186.15 180.625C189.65 180.625 192.425 177.825 192.425 174.25C192.425 170.675 189.65 167.875 186.15 167.875C182.625 167.875 179.85 170.675 179.85 174.25C179.85 177.825 182.625 180.625 186.15 180.625ZM203.089 179.55L206.539 170.375H209.739L204.539 183.1H201.639L196.439 170.375H199.639L203.089 179.55ZM217.126 183.3C213.051 183.3 210.176 180.375 210.176 176.65C210.176 172.95 213.076 170.075 216.901 170.075C220.701 170.075 223.526 172.95 223.526 176.6C223.526 177 223.501 177.3 223.426 177.65H213.051C213.251 179.325 214.851 180.85 217.126 180.85C218.876 180.85 220.151 180 220.851 178.875L222.976 180.175C221.876 182.125 219.726 183.3 217.126 183.3ZM213.101 175.375H220.726C220.476 173.975 219.026 172.525 216.926 172.525C214.826 172.525 213.351 174 213.101 175.375ZM229.013 183H226.113V170.375H229.013V172.6C229.638 171.1 231.188 170.2 233.213 170.2H233.663V172.975H232.713C230.463 172.975 229.013 174.375 229.013 177.375V183ZM241.465 183.3C237.615 183.3 234.615 180.375 234.615 176.65C234.615 172.95 237.615 170.075 241.44 170.075C244.09 170.075 246.115 171.375 247.24 173.3L244.99 174.575C244.34 173.425 243.09 172.575 241.515 172.575C239.265 172.575 237.515 174.425 237.515 176.675C237.515 178.95 239.265 180.775 241.515 180.775C243.04 180.775 244.315 179.975 244.965 178.8L247.315 180.075C246.24 181.925 244.165 183.3 241.465 183.3ZM259.651 171.95L259.626 170.35L262.526 170.375V183H259.626L259.651 181.425C258.551 182.575 257.026 183.3 255.251 183.3C251.601 183.3 248.751 180.375 248.751 176.675C248.751 172.95 251.601 170.075 255.251 170.075C257.026 170.075 258.551 170.775 259.651 171.95ZM255.651 180.75C257.876 180.75 259.651 178.95 259.651 176.675C259.626 174.4 257.876 172.625 255.651 172.625C253.426 172.625 251.651 174.4 251.651 176.675C251.651 178.95 253.426 180.75 255.651 180.75ZM270.059 183.3C267.809 183.3 266.034 182.525 264.884 180.95L266.334 178.975C267.159 180.15 268.559 180.95 270.134 180.95C271.484 180.95 272.234 180.4 272.234 179.55C272.234 178.25 270.134 178.05 268.284 177.3C266.784 176.725 265.359 175.9 265.409 173.775C265.434 171.525 267.284 170.075 270.184 170.075C272.084 170.075 273.734 170.75 274.909 172.075L273.584 174.075C272.759 173.075 271.584 172.4 270.259 172.4C269.009 172.4 268.284 172.9 268.284 173.675C268.284 174.85 270.084 175.125 271.809 175.75C273.459 176.325 275.134 177.15 275.134 179.4C275.134 181.775 273.009 183.3 270.059 183.3ZM282.201 170.375H285.051V172.8H282.201V183H279.301V172.8H276.451V170.375H279.301V166.425H282.201V170.375Z" fill="#555555"/>
<path d="M112.96 187H72.56V177.56L90.72 160.28C94.8 156.36 99.12 152.68 99.12 148.6C99.12 144.52 96.24 141.4 91.68 141.4C87.04 141.4 83.2 144.36 82 150.44L71.92 144.84C74.64 135.16 82.24 129.96 92.16 129.96C103.92 129.96 112.56 137 112.56 148.6C112.56 156.76 108.08 161.4 103.04 166.12L93.52 175H112.96V187ZM142.189 150.28C153.549 150.28 159.789 159 159.789 168.68C159.789 180.52 150.429 188.04 138.589 188.04C128.749 188.04 121.389 183.88 117.549 176.12L129.549 170.44C131.389 174.84 134.989 176.76 138.189 176.68C143.149 176.6 146.509 173.48 146.509 169C146.509 164.52 143.229 161.16 138.189 161.32C135.229 161.32 132.349 163.08 130.909 165.32L118.829 159.88L122.349 131H157.309V142.76H133.709L132.269 153.32C134.669 151.48 137.869 150.28 142.189 150.28Z" fill="#333333"/>
<circle cx="173" cy="117" r="7.5" stroke="#333333" stroke-width="5"/>
<path d="M1061.9 105.8C1058.63 105.8 1056.3 104.1 1055.35 101.625L1057.6 100.375C1058.4 102.225 1059.98 103.3 1061.88 103.3C1063.73 103.3 1064.93 102.275 1064.93 100.775C1064.93 96.925 1056.05 98.65 1056.05 92.65C1056.05 89.45 1058.55 87.7 1061.83 87.7C1064.58 87.7 1066.68 88.975 1067.75 91.35L1065.5 92.675C1064.85 91.125 1063.65 90.175 1061.93 90.175C1060.15 90.175 1059.05 91.15 1059.05 92.525C1059.05 96.2 1067.93 94.6 1067.93 100.675C1067.93 103.875 1065.45 105.8 1061.9 105.8ZM1075.87 105.8C1072.57 105.8 1070.25 103.625 1070.25 100.5V92.875H1073.15V100.3C1073.15 102.125 1074.27 103.225 1075.87 103.225C1077.45 103.225 1078.6 102.125 1078.6 100.3V92.875H1081.5V100.5C1081.5 103.625 1079.15 105.8 1075.87 105.8ZM1091.4 92.55C1094.4 92.55 1096.58 94.625 1096.58 97.725V105.5H1093.68V98.425C1093.68 96.4 1092.5 95.125 1090.7 95.125C1088.85 95.125 1087.63 96.5 1087.63 98.65V105.5H1084.73V92.85H1087.63V94.25C1088.5 93.175 1089.8 92.55 1091.4 92.55Z" fill="#555555"/>
<path d="M1117.13 93.7C1120.8 93.7 1123.33 96.125 1123.33 99.475C1123.33 103.025 1120.6 105.825 1116.65 105.825C1112.7 105.825 1109.85 103.2 1109.85 99.4C1109.85 97.975 1110.38 96.5 1111.4 94.925L1115.88 88H1119.95L1116.08 93.775C1116.4 93.725 1116.75 93.7 1117.13 93.7ZM1116.58 102.75C1118.43 102.75 1119.8 101.375 1119.8 99.575C1119.8 97.775 1118.45 96.45 1116.58 96.45C1114.75 96.45 1113.38 97.8 1113.38 99.575C1113.38 101.4 1114.75 102.75 1116.58 102.75ZM1136.64 90.425L1132.49 95C1135.36 95.35 1137.11 97.575 1137.11 100.2C1137.11 103.575 1134.29 105.825 1130.69 105.825C1127.71 105.825 1125.39 104.275 1124.54 101.9L1127.44 100.275C1127.84 101.625 1128.99 102.675 1130.61 102.675C1132.26 102.675 1133.56 101.6 1133.56 100.025C1133.56 98.4 1132.19 97.475 1130.59 97.475H1129.06L1128.09 95.675L1132.04 91.2H1125.24V88H1136.64V90.425Z" fill="#555555"/>
<circle cx="1145" cy="86.5" r="4" stroke="#555555" stroke-width="2"/>
<path d="M1168.08 94.075C1171.63 94.075 1173.65 96.725 1173.65 99.8C1173.65 103.475 1170.8 105.825 1167.15 105.825C1164.23 105.825 1161.98 104.55 1160.8 102.225L1164.03 100.725C1164.63 102.125 1165.88 102.8 1167.05 102.775C1168.85 102.75 1170.1 101.575 1170.1 99.9C1170.1 98.225 1168.88 96.975 1167.05 97.025C1165.95 97.025 1164.9 97.65 1164.35 98.475L1161.18 97.025L1162.28 88H1172.83V91.15H1165.33L1164.75 95.175C1165.58 94.525 1166.65 94.075 1168.08 94.075ZM1180.58 105.5H1176.7L1183.1 91.15H1175.25V88H1187.35V90.05L1180.58 105.5Z" fill="#555555"/>
<circle cx="1196" cy="86.5" r="4" stroke="#555555" stroke-width="2"/>
<path d="M953.075 157.5H949.85L948.3 153.65H940.55L939 157.5H935.775L943.1 140H945.75L953.075 157.5ZM944.425 143.975L941.475 151.35H947.375L944.425 143.975ZM955.971 143C954.946 143 954.171 142.275 954.171 141.25C954.171 140.225 954.946 139.5 955.971 139.5C957.021 139.5 957.771 140.225 957.771 141.25C957.771 142.275 957.021 143 955.971 143ZM957.421 157.5H954.521V144.875H957.421V157.5ZM963.671 157.5H960.771V144.875H963.671V147.1C964.296 145.6 965.846 144.7 967.871 144.7H968.321V147.475H967.371C965.121 147.475 963.671 148.875 963.671 151.875V157.5ZM987.18 146.45L987.13 144.85H990.03V162.5H987.13V157.5L987.18 155.9C986.08 157.075 984.53 157.8 982.755 157.8C979.105 157.8 976.255 154.875 976.255 151.175C976.255 147.45 979.105 144.575 982.755 144.575C984.53 144.575 986.08 145.275 987.18 146.45ZM983.155 155.25C985.38 155.25 987.155 153.45 987.155 151.175C987.13 148.9 985.38 147.125 983.155 147.125C980.93 147.125 979.155 148.9 979.155 151.175C979.155 153.45 980.93 155.25 983.155 155.25ZM998.913 157.8C995.613 157.8 993.288 155.625 993.288 152.5V144.875H996.188V152.3C996.188 154.125 997.313 155.225 998.913 155.225C1000.49 155.225 1001.64 154.125 1001.64 152.3V144.875H1004.54V152.5C1004.54 155.625 1002.19 157.8 998.913 157.8ZM1017.89 146.45L1017.87 144.85L1020.77 144.875V157.5H1017.87L1017.89 155.925C1016.79 157.075 1015.27 157.8 1013.49 157.8C1009.84 157.8 1006.99 154.875 1006.99 151.175C1006.99 147.45 1009.84 144.575 1013.49 144.575C1015.27 144.575 1016.79 145.275 1017.89 146.45ZM1013.89 155.25C1016.12 155.25 1017.89 153.45 1017.89 151.175C1017.87 148.9 1016.12 147.125 1013.89 147.125C1011.67 147.125 1009.89 148.9 1009.89 151.175C1009.89 153.45 1011.67 155.25 1013.89 155.25ZM1027 157.5H1024.1V139.75H1027V157.5ZM1031.8 143C1030.78 143 1030 142.275 1030 141.25C1030 140.225 1030.78 139.5 1031.8 139.5C1032.85 139.5 1033.6 140.225 1033.6 141.25C1033.6 142.275 1032.85 143 1031.8 143ZM1033.25 157.5H1030.35V144.875H1033.25V157.5ZM1041.15 144.875H1044V147.3H1041.15V157.5H1038.25V147.3H1035.4V144.875H1038.25V140.925H1041.15V144.875ZM1047.8 144.875L1051.25 153.675L1054.7 144.875H1057.75L1050.62 162.5H1047.62L1049.77 157.35L1044.67 144.875H1047.8ZM1066.22 156.15C1066.22 155.533 1066.37 155.1 1066.67 154.85C1066.97 154.6 1067.33 154.475 1067.74 154.475C1068.18 154.475 1068.54 154.6 1068.84 154.85C1069.16 155.1 1069.32 155.533 1069.32 156.15C1069.32 156.75 1069.16 157.183 1068.84 157.45C1068.54 157.717 1068.18 157.85 1067.74 157.85C1067.33 157.85 1066.97 157.717 1066.67 157.45C1066.37 157.183 1066.22 156.75 1066.22 156.15ZM1066.22 145.45C1066.22 144.817 1066.37 144.375 1066.67 144.125C1066.97 143.875 1067.33 143.75 1067.74 143.75C1068.18 143.75 1068.54 143.875 1068.84 144.125C1069.16 144.375 1069.32 144.817 1069.32 145.45C1069.32 146.05 1069.16 146.483 1068.84 146.75C1068.54 147.017 1068.18 147.15 1067.74 147.15C1067.33 147.15 1066.97 147.017 1066.67 146.75C1066.37 146.483 1066.22 146.05 1066.22 145.45ZM1090.6 157.5H1078.58V155.4L1084.58 149.525C1086.08 148.05 1087.45 146.675 1087.45 145.25C1087.45 143.525 1086.2 142.25 1084.38 142.25C1082.6 142.25 1081.23 143.3 1080.8 145.25L1078.55 144C1079.33 141.25 1081.53 139.7 1084.45 139.7C1087.9 139.7 1090.4 141.85 1090.4 145.225C1090.4 147.6 1088.98 149.2 1087.25 150.875L1083.18 154.85H1090.6V157.5ZM1099.94 157.825C1095.69 157.825 1092.69 154 1092.69 148.75C1092.69 143.475 1095.69 139.675 1099.94 139.675C1104.19 139.675 1107.19 143.475 1107.19 148.75C1107.19 154 1104.19 157.825 1099.94 157.825ZM1099.94 154.95C1102.49 154.95 1104.24 152.375 1104.24 148.75C1104.24 145.1 1102.49 142.55 1099.94 142.55C1097.42 142.55 1095.67 145.1 1095.67 148.75C1095.67 152.375 1097.42 154.95 1099.94 154.95ZM1125.06 151.625H1116.18V148.875H1125.06V151.625ZM1142.75 150.325V147.775H1151.88V148.925C1151.88 153.925 1148.03 157.8 1142.93 157.8C1137.8 157.8 1133.85 153.85 1133.85 148.725C1133.85 143.625 1137.8 139.7 1142.98 139.7C1146.5 139.7 1149.25 141.35 1150.83 143.95L1148.28 145.375C1147.28 143.65 1145.43 142.475 1143.1 142.475C1139.55 142.475 1136.85 145.225 1136.85 148.725C1136.85 152.225 1139.5 155 1142.93 155C1146.13 155 1148.33 152.95 1148.95 150.325H1142.75ZM1160.6 157.8C1156.77 157.8 1153.75 154.85 1153.75 151.15C1153.75 147.475 1156.77 144.575 1160.6 144.575C1164.4 144.575 1167.42 147.475 1167.42 151.15C1167.42 154.85 1164.4 157.8 1160.6 157.8ZM1160.6 155.2C1162.8 155.2 1164.55 153.425 1164.55 151.175C1164.55 148.925 1162.8 147.15 1160.6 147.15C1158.37 147.15 1156.62 148.925 1156.62 151.175C1156.62 153.45 1158.37 155.2 1160.6 155.2ZM1176.07 157.8C1172.25 157.8 1169.22 154.85 1169.22 151.15C1169.22 147.475 1172.25 144.575 1176.07 144.575C1179.87 144.575 1182.9 147.475 1182.9 151.15C1182.9 154.85 1179.87 157.8 1176.07 157.8ZM1176.07 155.2C1178.27 155.2 1180.02 153.425 1180.02 151.175C1180.02 148.925 1178.27 147.15 1176.07 147.15C1173.85 147.15 1172.1 148.925 1172.1 151.175C1172.1 153.45 1173.85 155.2 1176.07 155.2ZM1195.58 144.85V139.75H1198.48V157.5H1195.58L1195.63 155.9C1194.53 157.075 1192.98 157.8 1191.2 157.8C1187.55 157.8 1184.7 154.875 1184.7 151.175C1184.7 147.45 1187.55 144.575 1191.2 144.575C1192.98 144.575 1194.53 145.275 1195.63 146.45L1195.58 144.85ZM1191.6 155.25C1193.83 155.25 1195.6 153.45 1195.6 151.175C1195.58 148.9 1193.83 147.125 1191.6 147.125C1189.38 147.125 1187.6 148.9 1187.6 151.175C1187.6 153.45 1189.38 155.25 1191.6 155.25Z" fill="#555555"/>
<mask id="path-13-inside-1_82_1782" fill="white">
<path fill-rule="evenodd" clip-rule="evenodd" d="M560.191 -140.859C561.867 -141.649 563.544 -142.44 565.22 -143.231C565.489 -142.659 565.758 -142.089 566.027 -141.518C566.33 -140.875 566.633 -140.233 566.936 -139.59C568.62 -136.022 570.303 -132.453 571.986 -128.884C570.914 -128.378 569.84 -127.872 568.768 -127.366C570.864 -122.511 573.053 -117.698 575.334 -112.925C575.871 -113.178 576.406 -113.43 576.943 -113.684C577.481 -112.542 578.02 -111.4 578.559 -110.258C579.162 -110.542 579.766 -110.827 580.369 -111.111C580.972 -111.396 581.576 -111.681 582.179 -111.965C582.482 -111.323 582.785 -110.68 583.088 -110.038C583.625 -110.291 584.16 -110.544 584.697 -110.797C584.967 -110.226 585.236 -109.655 585.505 -109.084C586.042 -109.337 586.577 -109.59 587.114 -109.843C587.384 -109.272 587.653 -108.701 587.922 -108.13C588.225 -107.487 588.528 -106.845 588.831 -106.203C589.972 -106.741 591.11 -107.278 592.25 -107.815C592.52 -107.244 592.789 -106.673 593.058 -106.102C593.595 -106.356 594.13 -106.608 594.667 -106.861C595.778 -104.506 596.889 -102.151 598 -99.7951C598.525 -100.085 599.077 -100.302 599.66 -100.447C600.089 -100.026 600.408 -99.5223 600.618 -98.9359C601.118 -99.2418 601.655 -99.4077 602.228 -99.4333C602.866 -98.3409 603.439 -97.2151 603.944 -96.0547C605.017 -96.5603 606.091 -97.0669 607.163 -97.5725C607.817 -96.3992 608.456 -95.2171 609.081 -94.0272C609.618 -94.2805 610.153 -94.5329 610.69 -94.7862C611.228 -93.6442 611.767 -92.5021 612.306 -91.3601C612.843 -91.6134 613.378 -91.8657 613.915 -92.119C614.218 -91.4767 614.521 -90.8343 614.824 -90.1919C615.361 -90.4452 615.896 -90.6975 616.433 -90.9508C616.674 -90.293 617.029 -89.7186 617.492 -89.2256C619.218 -89.9088 620.91 -90.6635 622.571 -91.4902C622.84 -90.9191 623.11 -90.3483 623.379 -89.7772C623.916 -90.0305 624.451 -90.2828 624.988 -90.5361C625.258 -89.965 625.527 -89.3942 625.796 -88.8231C626.333 -89.0764 626.868 -89.3287 627.405 -89.582C627.708 -88.9397 628.011 -88.2973 628.314 -87.6549C628.851 -87.9082 629.386 -88.1605 629.923 -88.4138C630.193 -87.8427 630.462 -87.2719 630.731 -86.7008C631.335 -86.9854 631.938 -87.27 632.541 -87.5546C633.078 -87.8079 633.613 -88.0602 634.15 -88.3135C635.261 -85.9581 636.372 -83.6027 637.483 -81.2473C638.02 -81.5006 638.555 -81.753 639.092 -82.0062C640.057 -80.2837 640.967 -78.5317 641.818 -76.7479C642.355 -77.0012 642.89 -77.2536 643.427 -77.5068C643.73 -76.8645 644.033 -76.2221 644.336 -75.5797C644.873 -75.833 645.408 -76.0853 645.945 -76.3386C646.72 -74.608 647.562 -72.9111 648.47 -71.247C649.043 -71.2726 649.58 -71.4384 650.079 -71.7444C650.29 -71.1579 650.609 -70.6539 651.038 -70.2333C651.621 -70.3782 652.173 -70.5948 652.698 -70.8851C653.235 -71.1384 653.77 -71.3908 654.307 -71.6441C654.576 -71.073 654.845 -70.5021 655.115 -69.931C656.255 -70.4689 657.393 -71.0059 658.534 -71.5438C659.106 -70.3303 659.678 -69.1171 660.251 -67.9036C660.788 -68.1569 661.323 -68.4093 661.86 -68.6625C662.129 -68.0915 662.398 -67.5206 662.668 -66.9495C663.808 -67.4874 664.947 -68.0244 666.087 -68.5623C666.39 -67.9199 666.693 -67.2775 666.996 -66.6351C667.599 -66.9197 668.203 -67.2043 668.806 -67.4889C669.076 -66.9178 669.345 -66.347 669.614 -65.7759C670.151 -66.0292 670.686 -66.2815 671.223 -66.5348C671.796 -65.3214 672.368 -64.1081 672.94 -62.8946C673.477 -63.1479 674.012 -63.4003 674.549 -63.6536C675.122 -62.4401 675.694 -61.2269 676.266 -60.0134C676.803 -60.2667 677.338 -60.519 677.875 -60.7723C678.932 -58.4739 680.076 -56.2212 681.308 -54.0151C682.414 -54.4494 683.522 -54.8845 684.627 -55.3188C685.738 -52.9634 686.849 -50.608 687.96 -48.2526C687.423 -47.9993 686.888 -47.747 686.351 -47.4937C686.654 -46.8513 686.957 -46.2089 687.26 -45.5665C687.797 -45.8198 688.332 -46.0722 688.869 -46.3255C689.711 -44.5411 690.553 -42.7566 691.394 -40.9723C691.931 -41.2256 692.466 -41.4779 693.003 -41.7312C693.273 -41.1601 693.542 -40.5893 693.811 -40.0182C695.555 -40.8407 697.297 -41.6622 699.041 -42.4847C698.771 -43.0558 698.502 -43.6267 698.233 -44.1978C699.305 -44.7034 700.379 -45.21 701.451 -45.7156C701.72 -45.1445 701.989 -44.5737 702.259 -44.0026C703.399 -44.5405 704.538 -45.0774 705.678 -45.6153C705.947 -45.0443 706.217 -44.4734 706.486 -43.9023C707.631 -41.4756 708.775 -39.0487 709.92 -36.622C710.457 -36.8753 710.992 -37.1276 711.529 -37.3809C712.101 -36.1674 712.673 -34.9542 713.246 -33.7407C713.783 -33.994 714.318 -34.2464 714.855 -34.4996C715.932 -32.2155 717.009 -29.9317 718.087 -27.6476C717.048 -27.0706 716.008 -26.4925 714.97 -25.9156C715.508 -24.7736 716.047 -23.6315 716.586 -22.4895C716.028 -22.2694 715.51 -21.9813 715.027 -21.6235C715.078 -21.0245 715.265 -20.4579 715.583 -19.9227C715.029 -19.7315 714.56 -19.4231 714.176 -18.9971C715.186 -16.5953 716.263 -14.2238 717.408 -11.8834C718.549 -12.4213 719.687 -12.9582 720.827 -13.4961C721.4 -12.2827 721.972 -11.0694 722.544 -9.85596C723.081 -10.1093 723.616 -10.3616 724.153 -10.6149C724.726 -9.40144 725.298 -8.18818 725.87 -6.97473C726.407 -7.22802 726.942 -7.48037 727.479 -7.73366C728.134 -6.56038 728.772 -5.37822 729.398 -4.18836C729.935 -4.44165 730.47 -4.694 731.007 -4.94729C731.276 -4.3762 731.545 -3.80534 731.815 -3.23427C732.352 -3.48756 732.887 -3.73991 733.424 -3.9932C733.634 -3.40677 733.953 -2.90277 734.382 -2.48211C734.965 -2.62708 735.517 -2.84366 736.042 -3.13397C736.311 -2.5629 736.58 -1.99203 736.85 -1.42095C737.387 -1.67424 737.922 -1.92659 738.459 -2.17988C738.762 -1.5375 739.065 -0.895118 739.368 -0.252737C739.905 -0.506027 740.44 -0.75838 740.977 -1.01167C741.246 -0.439949 741.515 0.129634 741.785 0.701356C742.388 0.416755 742.992 0.132155 743.595 -0.152445C744.132 -0.405736 744.667 -0.658089 745.204 -0.911379C745.474 -0.339657 745.742 0.229925 746.012 0.801647C746.315 1.44403 746.618 2.08641 746.921 2.72879C747.458 2.4755 747.993 2.22315 748.53 1.96986C749.641 4.32527 750.752 6.68067 751.863 9.03608C752.4 8.78279 752.935 8.53044 753.472 8.27715C753.701 8.92539 754.039 9.46272 754.481 9.89531C755.054 11.1094 755.625 12.3214 756.198 13.5355C756.735 13.2822 757.27 13.0298 757.807 12.7765C758.077 13.3483 758.345 13.9178 758.615 14.4896C759.152 14.2363 759.687 13.9839 760.224 13.7306C760.849 14.9201 761.488 16.1029 762.142 17.2759C758.723 18.8887 755.304 20.5014 751.884 22.1141C752.457 23.3283 753.029 24.5402 753.601 25.7543C753.064 26.0076 752.529 26.26 751.992 26.5133C752.262 27.085 752.531 27.6546 752.8 28.2263C753.945 30.6524 755.09 33.0806 756.234 35.5066C756.773 36.6479 757.312 37.7914 757.85 38.9327C759.493 42.5243 761.245 46.0615 763.101 49.5442C764.34 48.5225 765.147 48.841 765.518 50.4983C766.018 50.1919 766.554 50.0254 767.128 50.0009C768.608 52.8785 770.023 55.7895 771.369 58.7327C770.229 59.2706 769.09 59.8076 767.95 60.3455C768.22 60.9172 768.488 61.4868 768.758 62.0585C762.657 64.9358 756.555 67.8141 750.455 70.6914C750.22 70.1924 749.983 69.6914 749.748 69.1925C748.607 69.7304 747.469 70.2673 746.329 70.8052C746.598 71.3769 746.867 71.9465 747.137 72.5182C745.996 73.0561 744.858 73.5931 743.717 74.131C744.256 75.2723 744.795 76.4157 745.333 77.557C744.193 78.0949 743.054 78.6319 741.914 79.1698C742.217 79.8121 742.52 80.4545 742.823 81.0969C742.286 81.3502 741.751 81.6025 741.214 81.8558C741.484 82.4276 741.752 82.9971 742.022 83.5689C738.669 85.1503 735.318 86.7308 731.965 88.3122C732.235 88.8839 732.504 89.4535 732.773 90.0252C732.152 90.2451 731.617 90.5864 731.165 91.0457C731.873 92.8083 732.715 94.5052 733.689 96.1374C731.489 97.374 729.244 98.5195 726.952 99.577C727.187 100.076 727.423 100.577 727.659 101.076C726.562 101.701 725.455 102.309 724.34 102.903C724.61 103.474 724.879 104.044 725.148 104.616C724.611 104.869 724.076 105.121 723.539 105.375C724.112 106.589 724.684 107.801 725.256 109.015C724.653 109.299 724.05 109.584 723.446 109.869C723.716 110.44 723.984 111.01 724.254 111.582C723.786 111.803 723.315 112.025 722.846 112.246C723.385 113.387 723.924 114.53 724.462 115.672C724.962 115.365 725.498 115.199 726.072 115.174C726.44 115.694 726.741 116.249 726.98 116.84C729.3 115.853 731.613 114.849 733.92 113.829C734.155 114.328 734.391 114.829 734.627 115.328C735.732 114.893 736.84 114.459 737.946 114.024C738.484 115.165 739.023 116.309 739.562 117.45C739.025 117.703 738.49 117.955 737.953 118.209C739.196 121.282 740.541 124.312 741.993 127.297C741.456 127.55 740.921 127.803 740.384 128.056C740.654 128.628 740.923 129.197 741.192 129.769C741.765 130.983 742.337 132.195 742.909 133.409C741.837 133.915 740.763 134.421 739.691 134.927C738.551 135.465 737.412 136.002 736.272 136.54C736.542 137.111 736.81 137.681 737.08 138.253C734.264 139.581 731.448 140.909 728.632 142.237C728.902 142.809 729.171 143.378 729.44 143.95C728.229 144.438 727.124 145.045 726.122 145.777C725.585 146.03 725.05 146.283 724.513 146.536C724.783 147.108 725.051 147.677 725.321 148.249C724.784 148.502 724.249 148.755 723.712 149.008C725.164 151.993 726.51 155.023 727.753 158.096C727.284 158.317 726.813 158.539 726.345 158.76C726.834 160.011 727.34 161.257 727.861 162.495C728.398 162.242 728.933 161.99 729.47 161.736C729.975 162.896 730.548 164.023 731.186 165.115C731.828 165.058 732.432 164.863 732.997 164.523C733.232 165.022 733.468 165.523 733.704 166.022C735.381 165.225 737.09 164.506 738.833 163.864C739.371 165.005 739.911 166.149 740.449 167.29C742.124 166.5 743.802 165.709 745.477 164.918C745.78 165.561 746.083 166.203 746.386 166.846C746.923 166.592 747.458 166.34 747.995 166.087C748.835 167.877 749.742 169.629 750.721 171.345C751.19 171.124 751.661 170.902 752.129 170.681C753.395 172.969 754.506 175.324 755.462 177.747C754.994 177.968 754.523 178.19 754.054 178.411C755.297 181.484 756.643 184.515 758.095 187.499C757.558 187.753 757.023 188.005 756.486 188.258C756.756 188.83 757.024 189.4 757.294 189.971C756.757 190.225 756.222 190.477 755.685 190.73C757.191 194.378 758.807 197.98 760.534 201.532C759.979 201.722 759.51 202.03 759.126 202.457C759.563 203.644 760.068 204.803 760.641 205.931C760.911 206.503 761.18 207.072 761.449 207.644C760.912 207.897 760.377 208.149 759.84 208.403C759.283 208.624 758.764 208.91 758.282 209.269C758.333 209.868 758.519 210.434 758.838 210.97C758.284 211.16 757.814 211.468 757.431 211.895C758.44 214.296 759.517 216.667 760.663 219.009C759.591 219.514 758.517 220.021 757.445 220.527C755.537 216.361 753.516 212.255 751.386 208.202C750.886 208.509 750.35 208.675 749.776 208.7C749.408 208.18 749.107 207.625 748.868 207.034C747.796 207.54 746.722 208.046 745.65 208.552C745.38 207.98 745.111 207.41 744.842 206.839C744.238 207.123 743.635 207.408 743.032 207.693C742.762 207.121 742.493 206.551 742.224 205.98C741.687 206.233 741.152 206.485 740.615 206.739C740.042 205.524 739.47 204.312 738.898 203.098C737.757 203.636 736.619 204.173 735.478 204.711C734.338 205.249 733.2 205.786 732.059 206.324C731.79 205.752 731.521 205.182 731.251 204.611C728.421 205.726 725.638 206.952 722.904 208.286C722.634 207.714 722.366 207.145 722.096 206.573C721.492 206.858 720.889 207.142 720.286 207.427C720.016 206.855 719.747 206.286 719.478 205.714C718.372 206.149 717.264 206.583 716.159 207.018C715.923 206.519 715.687 206.018 715.452 205.519C712.636 206.847 709.82 208.175 707.004 209.503C707.239 210.002 707.476 210.503 707.711 211.002C705.482 212.022 703.303 213.136 701.175 214.347C701.444 214.919 701.713 215.488 701.983 216.06C701.379 216.344 700.776 216.629 700.173 216.914C699.1 217.419 698.026 217.926 696.954 218.431C696.115 216.642 695.207 214.889 694.228 213.173C693.691 213.426 693.156 213.679 692.619 213.932C692.35 213.36 692.081 212.791 691.811 212.219C691.239 211.005 690.667 209.793 690.094 208.579C689.557 208.832 689.022 209.085 688.485 209.338C688.216 208.766 687.947 208.197 687.677 207.625C687.14 207.878 686.605 208.13 686.068 208.384C685.765 207.741 685.462 207.099 685.159 206.457C684.019 206.994 682.881 207.531 681.74 208.069C681.47 207.498 681.202 206.928 680.932 206.356C680.395 206.61 679.86 206.862 679.323 207.115C678.75 205.901 678.179 204.689 677.606 203.475C677.003 203.76 676.399 204.044 675.796 204.329C675.526 203.757 675.258 203.188 674.988 202.616C674.451 202.869 673.916 203.121 673.379 203.375C672.806 202.161 672.235 200.949 671.662 199.735C671.125 199.988 670.59 200.24 670.053 200.494C669.202 198.709 668.292 196.958 667.327 195.235C666.79 195.489 666.255 195.741 665.718 195.994C665.448 195.422 665.18 194.853 664.91 194.281C664.373 194.534 663.838 194.787 663.301 195.04C662.998 194.398 662.695 193.755 662.392 193.113C661.281 190.757 660.17 188.402 659.059 186.047C660.131 185.541 661.205 185.034 662.277 184.529C661.065 181.517 659.719 178.574 658.237 175.702C657.595 175.759 656.991 175.955 656.426 176.294C656.156 175.723 655.888 175.153 655.618 174.581C655.081 174.835 654.546 175.087 654.009 175.34C653.706 174.698 653.403 174.056 653.1 173.413C650.888 174.457 648.675 175.5 646.463 176.544C646.193 175.972 645.924 175.402 645.655 174.831C645.051 175.115 644.448 175.4 643.845 175.685C643.575 175.113 643.306 174.543 643.037 173.971C642.433 174.256 641.83 174.541 641.226 174.825C640.924 174.183 640.621 173.541 640.318 172.898C639.848 173.119 639.379 173.341 638.91 173.562C638.64 172.99 638.371 172.421 638.102 171.849C637.498 172.134 636.895 172.418 636.291 172.703C635.753 171.562 635.214 170.418 634.675 169.277C633.57 169.712 632.462 170.145 631.356 170.581C630.818 169.439 630.279 168.296 629.74 167.155C630.21 166.933 630.679 166.712 631.148 166.491C630.879 165.919 630.61 165.349 630.34 164.778C629.871 164.999 629.402 165.22 628.932 165.442C627.805 163.002 626.593 160.608 625.297 158.256C624.761 158.509 624.225 158.762 623.688 159.015C623.152 159.268 622.616 159.521 622.079 159.774C618.982 153.207 615.885 146.642 612.788 140.074C611.946 138.291 611.104 136.505 610.263 134.721C609.726 134.974 609.19 135.227 608.654 135.48C608.384 134.908 608.115 134.339 607.846 133.767C607.242 134.052 606.639 134.336 606.036 134.621C605.766 134.049 605.497 133.479 605.228 132.908C604.122 133.343 603.014 133.776 601.908 134.211C601.639 133.64 601.37 133.07 601.1 132.498C600.497 132.783 599.894 133.068 599.29 133.352C598.15 133.89 597.011 134.427 595.871 134.965C595.601 134.393 595.333 133.824 595.063 133.252C593.387 134.042 591.711 134.833 590.035 135.624C589.498 135.877 588.962 136.13 588.426 136.383C588.123 135.74 587.82 135.098 587.517 134.455C586.98 134.708 586.444 134.961 585.908 135.214C585.638 134.643 585.369 134.073 585.1 133.501C583.96 134.039 582.82 134.576 581.681 135.114C581.411 134.542 581.142 133.973 580.873 133.401C580.248 132.212 579.608 131.029 578.954 129.856C578.485 130.077 578.016 130.298 577.547 130.52C577.277 129.948 577.008 129.378 576.739 128.807C574.465 129.903 572.152 130.907 569.799 131.818C569.564 131.319 569.327 130.818 569.092 130.319C567.35 130.96 565.64 131.68 563.963 132.477C563.426 132.73 562.89 132.983 562.354 133.236C562.084 132.664 561.815 132.094 561.546 131.523C561.276 130.951 561.007 130.381 560.738 129.81C560.201 130.063 559.665 130.316 559.129 130.569C557.984 128.142 556.839 125.714 555.695 123.288C554.555 123.826 553.415 124.363 552.276 124.901C552.006 124.329 551.737 123.76 551.468 123.188C550.931 123.441 550.395 123.694 549.859 123.947C549.589 123.375 549.32 122.806 549.051 122.234C547.302 123.053 545.526 123.805 543.72 124.486C543.451 123.915 543.182 123.345 542.912 122.773C542.376 123.026 541.84 123.279 541.303 123.532C541.034 122.96 540.765 122.391 540.495 121.819C538.819 122.61 537.143 123.4 535.467 124.191C534.356 121.835 533.245 119.48 532.134 117.125C532.67 116.872 533.207 116.619 533.743 116.366C533.17 115.152 532.599 113.94 532.026 112.725C531.756 112.154 531.488 111.584 531.218 111.012C530.377 109.229 529.535 107.443 528.693 105.659C528.157 105.912 527.621 106.165 527.084 106.418C526.209 104.562 525.334 102.707 524.458 100.851C523.922 101.104 523.386 101.357 522.849 101.61C522.58 101.039 522.311 100.468 522.041 99.8968C521.438 100.181 520.834 100.466 520.231 100.751C519.962 100.179 519.692 99.6086 519.423 99.0375C518.256 99.5199 517.083 99.9863 515.903 100.436C515.667 99.9366 515.432 99.4368 515.196 98.9372C513.513 99.72 511.803 100.439 510.067 101.095C509.797 100.524 509.528 99.9528 509.259 99.3818C504.767 101.5 500.275 103.619 495.783 105.738C495.246 105.991 494.71 106.244 494.174 106.497C493.904 105.926 493.635 105.355 493.366 104.784C492.829 105.037 492.293 105.29 491.757 105.543C491.184 104.329 490.612 103.116 490.04 101.903C488.9 102.44 487.76 102.978 486.621 103.515C486.084 103.768 485.548 104.021 485.012 104.274C484.742 103.703 484.473 103.132 484.204 102.561C483.631 101.348 483.059 100.134 482.487 98.921C481.95 99.174 481.414 99.4269 480.878 99.6799C480.639 99.089 480.336 98.5338 479.969 98.0143C479.327 98.0701 478.723 98.2676 478.158 98.6066C477.923 98.107 477.687 97.6072 477.451 97.1077C476.345 97.5423 475.239 97.9768 474.132 98.4114C473.863 97.8403 473.594 97.2695 473.324 96.6984C470.442 98.0581 467.559 99.4179 464.676 100.778C464.945 101.349 465.214 101.92 465.484 102.491C463.907 102.798 463.64 103.622 464.683 104.963C463.61 105.469 462.537 105.975 461.464 106.481C461.229 105.981 460.993 105.481 460.758 104.982C458.502 100.199 456.246 95.4172 453.991 90.635C454.527 90.382 455.063 90.1291 455.6 89.8761C456.74 89.3385 457.879 88.801 459.019 88.2634C458.716 87.621 458.413 86.9786 458.11 86.3362C459.786 85.5457 461.462 84.7551 463.138 83.9646C462.869 83.3935 462.6 82.8226 462.33 82.2515C463.47 81.7139 464.61 81.1764 465.75 80.6388C464.784 78.9167 463.875 77.1639 463.024 75.3805C461.951 75.8864 460.878 76.3924 459.805 76.8983C459.502 76.2559 459.199 75.6136 458.896 74.9712C458.358 73.8292 457.819 72.6871 457.281 71.5451C458.436 71.0803 459.509 70.487 460.498 69.7657C458.68 65.6505 456.795 61.5662 454.842 57.513C462.619 53.8448 470.396 50.1766 478.173 46.5084C478.443 47.0795 478.712 47.6504 478.981 48.2215C480.657 47.4309 482.333 46.6403 484.009 45.8498C484.279 46.4209 484.548 46.9917 484.817 47.5628C486.478 46.7361 488.171 45.9811 489.896 45.2982C490.325 45.7193 490.644 46.2231 490.855 46.8093C491.927 46.3034 493 45.7973 494.073 45.2914C493.804 44.7203 493.534 44.1495 493.265 43.5784C495.477 42.5349 497.69 41.4913 499.902 40.4478C499.364 39.3059 498.825 38.1637 498.286 37.0218C504.551 34.1357 510.752 31.1234 516.891 27.985C516.621 27.4139 516.352 26.8431 516.083 26.272C516.619 26.019 517.155 25.7661 517.692 25.5131C517.119 24.2996 516.547 23.0863 515.975 21.8729C515.705 21.3018 515.436 20.7309 515.167 20.1599C516.307 19.6223 517.446 19.0847 518.586 18.5471C516.35 13.8317 514.095 9.13668 511.82 4.46211C510.634 4.76672 509.494 5.21696 508.4 5.81329C507.864 6.0663 507.327 6.31921 506.791 6.57222C506.522 6.00114 506.252 5.43028 505.983 4.8592C505.38 5.1438 504.776 5.4284 504.173 5.713C503.903 5.14192 503.634 4.57106 503.365 3.99998C502.761 4.28458 502.158 4.56918 501.555 4.85378C501.252 4.21139 500.949 3.56901 500.646 2.92663C500.176 3.14795 499.707 3.36937 499.238 3.5907C498.396 1.80637 497.554 0.021827 496.713 -1.7625C497.249 -2.01551 497.785 -2.26842 498.322 -2.52143C498.052 -3.09251 497.783 -3.66338 497.514 -4.23446C498.05 -4.48747 498.587 -4.74038 499.123 -4.9934C498.82 -5.63578 498.517 -6.27816 498.214 -6.92055C498.817 -7.20515 499.421 -7.48975 500.024 -7.77435C499.789 -8.2739 499.553 -8.77368 499.317 -9.27324C500.356 -9.85048 501.395 -10.428 502.434 -11.0052C502.165 -11.5763 501.896 -12.1472 501.626 -12.7183C502.247 -12.9386 502.783 -13.2787 503.235 -13.7388C501.114 -18.4964 498.926 -23.223 496.67 -27.9186C497.206 -28.1716 497.742 -28.4246 498.279 -28.6776C497.437 -30.4619 496.595 -32.2464 495.754 -34.0308C496.29 -34.2838 496.826 -34.5367 497.363 -34.7897C497.094 -35.3608 496.824 -35.9316 496.555 -36.5027C503.281 -39.6235 509.952 -42.8573 516.567 -46.2035C516.249 -46.7389 516.063 -47.3058 516.011 -47.9044C517.031 -48.5162 518.087 -49.0579 519.178 -49.5293C518.909 -50.1004 518.64 -50.6712 518.37 -51.2423C522.259 -53.0764 526.148 -54.9105 530.036 -56.7446C530.639 -57.0292 531.243 -57.3138 531.846 -57.5984C532.419 -56.3849 532.991 -55.1717 533.563 -53.9582C534.636 -54.4641 535.709 -54.9704 536.781 -55.4761C537.051 -54.905 537.32 -54.3341 537.589 -53.7631C538.73 -54.3009 539.868 -54.8379 541.008 -55.3758C541.278 -54.8047 541.547 -54.2338 541.816 -53.6628C545.169 -55.2442 548.52 -56.8247 551.873 -58.4061C551.604 -58.9772 551.334 -59.5481 551.065 -60.1191C551.602 -60.3724 552.137 -60.6248 552.674 -60.8781C552.405 -61.4491 552.135 -62.02 551.866 -62.5911C552.469 -62.8757 553.073 -63.1603 553.676 -63.4449C552.835 -65.2292 551.993 -67.0138 551.151 -68.7981C551.709 -69.0182 552.227 -69.3063 552.71 -69.6641C552.658 -70.2631 552.472 -70.8297 552.154 -71.3649C552.622 -71.586 553.093 -71.8079 553.561 -72.029C552.142 -75.7223 550.458 -79.2912 548.512 -82.7354C548.012 -82.4294 547.475 -82.2636 546.902 -82.238C546.264 -83.3304 545.691 -84.4562 545.186 -85.6166C549.633 -87.8183 554.126 -89.9376 558.661 -91.9727C558.358 -92.6151 558.055 -93.2575 557.752 -93.8998C558.29 -94.1531 558.825 -94.4055 559.362 -94.6588C558.789 -95.8722 558.217 -97.0855 557.645 -98.2989C558.248 -98.5835 558.851 -98.8681 559.455 -99.1527C559.185 -99.7238 558.916 -100.295 558.647 -100.866C559.184 -101.119 559.719 -101.371 560.256 -101.625C558.303 -105.764 556.351 -109.904 554.398 -114.044C553.795 -113.76 553.191 -113.475 552.588 -113.19C552.857 -112.619 553.126 -112.048 553.396 -111.477C552.927 -111.256 552.457 -111.034 551.988 -110.813C550.042 -115.048 547.99 -119.227 545.828 -123.352C545.291 -123.099 544.756 -122.846 544.219 -122.593C543.95 -123.164 543.68 -123.735 543.411 -124.306C542.874 -124.053 542.339 -123.8 541.802 -123.547C540.691 -125.902 539.58 -128.258 538.469 -130.613C545.71 -134.028 552.95 -137.444 560.191 -140.859Z"/>
</mask>
<path fill-rule="evenodd" clip-rule="evenodd" d="M560.191 -140.859C561.867 -141.649 563.544 -142.44 565.22 -143.231C565.489 -142.659 565.758 -142.089 566.027 -141.518C566.33 -140.875 566.633 -140.233 566.936 -139.59C568.62 -136.022 570.303 -132.453 571.986 -128.884C570.914 -128.378 569.84 -127.872 568.768 -127.366C570.864 -122.511 573.053 -117.698 575.334 -112.925C575.871 -113.178 576.406 -113.43 576.943 -113.684C577.481 -112.542 578.02 -111.4 578.559 -110.258C579.162 -110.542 579.766 -110.827 580.369 -111.111C580.972 -111.396 581.576 -111.681 582.179 -111.965C582.482 -111.323 582.785 -110.68 583.088 -110.038C583.625 -110.291 584.16 -110.544 584.697 -110.797C584.967 -110.226 585.236 -109.655 585.505 -109.084C586.042 -109.337 586.577 -109.59 587.114 -109.843C587.384 -109.272 587.653 -108.701 587.922 -108.13C588.225 -107.487 588.528 -106.845 588.831 -106.203C589.972 -106.741 591.11 -107.278 592.25 -107.815C592.52 -107.244 592.789 -106.673 593.058 -106.102C593.595 -106.356 594.13 -106.608 594.667 -106.861C595.778 -104.506 596.889 -102.151 598 -99.7951C598.525 -100.085 599.077 -100.302 599.66 -100.447C600.089 -100.026 600.408 -99.5223 600.618 -98.9359C601.118 -99.2418 601.655 -99.4077 602.228 -99.4333C602.866 -98.3409 603.439 -97.2151 603.944 -96.0547C605.017 -96.5603 606.091 -97.0669 607.163 -97.5725C607.817 -96.3992 608.456 -95.2171 609.081 -94.0272C609.618 -94.2805 610.153 -94.5329 610.69 -94.7862C611.228 -93.6442 611.767 -92.5021 612.306 -91.3601C612.843 -91.6134 613.378 -91.8657 613.915 -92.119C614.218 -91.4767 614.521 -90.8343 614.824 -90.1919C615.361 -90.4452 615.896 -90.6975 616.433 -90.9508C616.674 -90.293 617.029 -89.7186 617.492 -89.2256C619.218 -89.9088 620.91 -90.6635 622.571 -91.4902C622.84 -90.9191 623.11 -90.3483 623.379 -89.7772C623.916 -90.0305 624.451 -90.2828 624.988 -90.5361C625.258 -89.965 625.527 -89.3942 625.796 -88.8231C626.333 -89.0764 626.868 -89.3287 627.405 -89.582C627.708 -88.9397 628.011 -88.2973 628.314 -87.6549C628.851 -87.9082 629.386 -88.1605 629.923 -88.4138C630.193 -87.8427 630.462 -87.2719 630.731 -86.7008C631.335 -86.9854 631.938 -87.27 632.541 -87.5546C633.078 -87.8079 633.613 -88.0602 634.15 -88.3135C635.261 -85.9581 636.372 -83.6027 637.483 -81.2473C638.02 -81.5006 638.555 -81.753 639.092 -82.0062C640.057 -80.2837 640.967 -78.5317 641.818 -76.7479C642.355 -77.0012 642.89 -77.2536 643.427 -77.5068C643.73 -76.8645 644.033 -76.2221 644.336 -75.5797C644.873 -75.833 645.408 -76.0853 645.945 -76.3386C646.72 -74.608 647.562 -72.9111 648.47 -71.247C649.043 -71.2726 649.58 -71.4384 650.079 -71.7444C650.29 -71.1579 650.609 -70.6539 651.038 -70.2333C651.621 -70.3782 652.173 -70.5948 652.698 -70.8851C653.235 -71.1384 653.77 -71.3908 654.307 -71.6441C654.576 -71.073 654.845 -70.5021 655.115 -69.931C656.255 -70.4689 657.393 -71.0059 658.534 -71.5438C659.106 -70.3303 659.678 -69.1171 660.251 -67.9036C660.788 -68.1569 661.323 -68.4093 661.86 -68.6625C662.129 -68.0915 662.398 -67.5206 662.668 -66.9495C663.808 -67.4874 664.947 -68.0244 666.087 -68.5623C666.39 -67.9199 666.693 -67.2775 666.996 -66.6351C667.599 -66.9197 668.203 -67.2043 668.806 -67.4889C669.076 -66.9178 669.345 -66.347 669.614 -65.7759C670.151 -66.0292 670.686 -66.2815 671.223 -66.5348C671.796 -65.3214 672.368 -64.1081 672.94 -62.8946C673.477 -63.1479 674.012 -63.4003 674.549 -63.6536C675.122 -62.4401 675.694 -61.2269 676.266 -60.0134C676.803 -60.2667 677.338 -60.519 677.875 -60.7723C678.932 -58.4739 680.076 -56.2212 681.308 -54.0151C682.414 -54.4494 683.522 -54.8845 684.627 -55.3188C685.738 -52.9634 686.849 -50.608 687.96 -48.2526C687.423 -47.9993 686.888 -47.747 686.351 -47.4937C686.654 -46.8513 686.957 -46.2089 687.26 -45.5665C687.797 -45.8198 688.332 -46.0722 688.869 -46.3255C689.711 -44.5411 690.553 -42.7566 691.394 -40.9723C691.931 -41.2256 692.466 -41.4779 693.003 -41.7312C693.273 -41.1601 693.542 -40.5893 693.811 -40.0182C695.555 -40.8407 697.297 -41.6622 699.041 -42.4847C698.771 -43.0558 698.502 -43.6267 698.233 -44.1978C699.305 -44.7034 700.379 -45.21 701.451 -45.7156C701.72 -45.1445 701.989 -44.5737 702.259 -44.0026C703.399 -44.5405 704.538 -45.0774 705.678 -45.6153C705.947 -45.0443 706.217 -44.4734 706.486 -43.9023C707.631 -41.4756 708.775 -39.0487 709.92 -36.622C710.457 -36.8753 710.992 -37.1276 711.529 -37.3809C712.101 -36.1674 712.673 -34.9542 713.246 -33.7407C713.783 -33.994 714.318 -34.2464 714.855 -34.4996C715.932 -32.2155 717.009 -29.9317 718.087 -27.6476C717.048 -27.0706 716.008 -26.4925 714.97 -25.9156C715.508 -24.7736 716.047 -23.6315 716.586 -22.4895C716.028 -22.2694 715.51 -21.9813 715.027 -21.6235C715.078 -21.0245 715.265 -20.4579 715.583 -19.9227C715.029 -19.7315 714.56 -19.4231 714.176 -18.9971C715.186 -16.5953 716.263 -14.2238 717.408 -11.8834C718.549 -12.4213 719.687 -12.9582 720.827 -13.4961C721.4 -12.2827 721.972 -11.0694 722.544 -9.85596C723.081 -10.1093 723.616 -10.3616 724.153 -10.6149C724.726 -9.40144 725.298 -8.18818 725.87 -6.97473C726.407 -7.22802 726.942 -7.48037 727.479 -7.73366C728.134 -6.56038 728.772 -5.37822 729.398 -4.18836C729.935 -4.44165 730.47 -4.694 731.007 -4.94729C731.276 -4.3762 731.545 -3.80534 731.815 -3.23427C732.352 -3.48756 732.887 -3.73991 733.424 -3.9932C733.634 -3.40677 733.953 -2.90277 734.382 -2.48211C734.965 -2.62708 735.517 -2.84366 736.042 -3.13397C736.311 -2.5629 736.58 -1.99203 736.85 -1.42095C737.387 -1.67424 737.922 -1.92659 738.459 -2.17988C738.762 -1.5375 739.065 -0.895118 739.368 -0.252737C739.905 -0.506027 740.44 -0.75838 740.977 -1.01167C741.246 -0.439949 741.515 0.129634 741.785 0.701356C742.388 0.416755 742.992 0.132155 743.595 -0.152445C744.132 -0.405736 744.667 -0.658089 745.204 -0.911379C745.474 -0.339657 745.742 0.229925 746.012 0.801647C746.315 1.44403 746.618 2.08641 746.921 2.72879C747.458 2.4755 747.993 2.22315 748.53 1.96986C749.641 4.32527 750.752 6.68067 751.863 9.03608C752.4 8.78279 752.935 8.53044 753.472 8.27715C753.701 8.92539 754.039 9.46272 754.481 9.89531C755.054 11.1094 755.625 12.3214 756.198 13.5355C756.735 13.2822 757.27 13.0298 757.807 12.7765C758.077 13.3483 758.345 13.9178 758.615 14.4896C759.152 14.2363 759.687 13.9839 760.224 13.7306C760.849 14.9201 761.488 16.1029 762.142 17.2759C758.723 18.8887 755.304 20.5014 751.884 22.1141C752.457 23.3283 753.029 24.5402 753.601 25.7543C753.064 26.0076 752.529 26.26 751.992 26.5133C752.262 27.085 752.531 27.6546 752.8 28.2263C753.945 30.6524 755.09 33.0806 756.234 35.5066C756.773 36.6479 757.312 37.7914 757.85 38.9327C759.493 42.5243 761.245 46.0615 763.101 49.5442C764.34 48.5225 765.147 48.841 765.518 50.4983C766.018 50.1919 766.554 50.0254 767.128 50.0009C768.608 52.8785 770.023 55.7895 771.369 58.7327C770.229 59.2706 769.09 59.8076 767.95 60.3455C768.22 60.9172 768.488 61.4868 768.758 62.0585C762.657 64.9358 756.555 67.8141 750.455 70.6914C750.22 70.1924 749.983 69.6914 749.748 69.1925C748.607 69.7304 747.469 70.2673 746.329 70.8052C746.598 71.3769 746.867 71.9465 747.137 72.5182C745.996 73.0561 744.858 73.5931 743.717 74.131C744.256 75.2723 744.795 76.4157 745.333 77.557C744.193 78.0949 743.054 78.6319 741.914 79.1698C742.217 79.8121 742.52 80.4545 742.823 81.0969C742.286 81.3502 741.751 81.6025 741.214 81.8558C741.484 82.4276 741.752 82.9971 742.022 83.5689C738.669 85.1503 735.318 86.7308 731.965 88.3122C732.235 88.8839 732.504 89.4535 732.773 90.0252C732.152 90.2451 731.617 90.5864 731.165 91.0457C731.873 92.8083 732.715 94.5052 733.689 96.1374C731.489 97.374 729.244 98.5195 726.952 99.577C727.187 100.076 727.423 100.577 727.659 101.076C726.562 101.701 725.455 102.309 724.34 102.903C724.61 103.474 724.879 104.044 725.148 104.616C724.611 104.869 724.076 105.121 723.539 105.375C724.112 106.589 724.684 107.801 725.256 109.015C724.653 109.299 724.05 109.584 723.446 109.869C723.716 110.44 723.984 111.01 724.254 111.582C723.786 111.803 723.315 112.025 722.846 112.246C723.385 113.387 723.924 114.53 724.462 115.672C724.962 115.365 725.498 115.199 726.072 115.174C726.44 115.694 726.741 116.249 726.98 116.84C729.3 115.853 731.613 114.849 733.92 113.829C734.155 114.328 734.391 114.829 734.627 115.328C735.732 114.893 736.84 114.459 737.946 114.024C738.484 115.165 739.023 116.309 739.562 117.45C739.025 117.703 738.49 117.955 737.953 118.209C739.196 121.282 740.541 124.312 741.993 127.297C741.456 127.55 740.921 127.803 740.384 128.056C740.654 128.628 740.923 129.197 741.192 129.769C741.765 130.983 742.337 132.195 742.909 133.409C741.837 133.915 740.763 134.421 739.691 134.927C738.551 135.465 737.412 136.002 736.272 136.54C736.542 137.111 736.81 137.681 737.08 138.253C734.264 139.581 731.448 140.909 728.632 142.237C728.902 142.809 729.171 143.378 729.44 143.95C728.229 144.438 727.124 145.045 726.122 145.777C725.585 146.03 725.05 146.283 724.513 146.536C724.783 147.108 725.051 147.677 725.321 148.249C724.784 148.502 724.249 148.755 723.712 149.008C725.164 151.993 726.51 155.023 727.753 158.096C727.284 158.317 726.813 158.539 726.345 158.76C726.834 160.011 727.34 161.257 727.861 162.495C728.398 162.242 728.933 161.99 729.47 161.736C729.975 162.896 730.548 164.023 731.186 165.115C731.828 165.058 732.432 164.863 732.997 164.523C733.232 165.022 733.468 165.523 733.704 166.022C735.381 165.225 737.09 164.506 738.833 163.864C739.371 165.005 739.911 166.149 740.449 167.29C742.124 166.5 743.802 165.709 745.477 164.918C745.78 165.561 746.083 166.203 746.386 166.846C746.923 166.592 747.458 166.34 747.995 166.087C748.835 167.877 749.742 169.629 750.721 171.345C751.19 171.124 751.661 170.902 752.129 170.681C753.395 172.969 754.506 175.324 755.462 177.747C754.994 177.968 754.523 178.19 754.054 178.411C755.297 181.484 756.643 184.515 758.095 187.499C757.558 187.753 757.023 188.005 756.486 188.258C756.756 188.83 757.024 189.4 757.294 189.971C756.757 190.225 756.222 190.477 755.685 190.73C757.191 194.378 758.807 197.98 760.534 201.532C759.979 201.722 759.51 202.03 759.126 202.457C759.563 203.644 760.068 204.803 760.641 205.931C760.911 206.503 761.18 207.072 761.449 207.644C760.912 207.897 760.377 208.149 759.84 208.403C759.283 208.624 758.764 208.91 758.282 209.269C758.333 209.868 758.519 210.434 758.838 210.97C758.284 211.16 757.814 211.468 757.431 211.895C758.44 214.296 759.517 216.667 760.663 219.009C759.591 219.514 758.517 220.021 757.445 220.527C755.537 216.361 753.516 212.255 751.386 208.202C750.886 208.509 750.35 208.675 749.776 208.7C749.408 208.18 749.107 207.625 748.868 207.034C747.796 207.54 746.722 208.046 745.65 208.552C745.38 207.98 745.111 207.41 744.842 206.839C744.238 207.123 743.635 207.408 743.032 207.693C742.762 207.121 742.493 206.551 742.224 205.98C741.687 206.233 741.152 206.485 740.615 206.739C740.042 205.524 739.47 204.312 738.898 203.098C737.757 203.636 736.619 204.173 735.478 204.711C734.338 205.249 733.2 205.786 732.059 206.324C731.79 205.752 731.521 205.182 731.251 204.611C728.421 205.726 725.638 206.952 722.904 208.286C722.634 207.714 722.366 207.145 722.096 206.573C721.492 206.858 720.889 207.142 720.286 207.427C720.016 206.855 719.747 206.286 719.478 205.714C718.372 206.149 717.264 206.583 716.159 207.018C715.923 206.519 715.687 206.018 715.452 205.519C712.636 206.847 709.82 208.175 707.004 209.503C707.239 210.002 707.476 210.503 707.711 211.002C705.482 212.022 703.303 213.136 701.175 214.347C701.444 214.919 701.713 215.488 701.983 216.06C701.379 216.344 700.776 216.629 700.173 216.914C699.1 217.419 698.026 217.926 696.954 218.431C696.115 216.642 695.207 214.889 694.228 213.173C693.691 213.426 693.156 213.679 692.619 213.932C692.35 213.36 692.081 212.791 691.811 212.219C691.239 211.005 690.667 209.793 690.094 208.579C689.557 208.832 689.022 209.085 688.485 209.338C688.216 208.766 687.947 208.197 687.677 207.625C687.14 207.878 686.605 208.13 686.068 208.384C685.765 207.741 685.462 207.099 685.159 206.457C684.019 206.994 682.881 207.531 681.74 208.069C681.47 207.498 681.202 206.928 680.932 206.356C680.395 206.61 679.86 206.862 679.323 207.115C678.75 205.901 678.179 204.689 677.606 203.475C677.003 203.76 676.399 204.044 675.796 204.329C675.526 203.757 675.258 203.188 674.988 202.616C674.451 202.869 673.916 203.121 673.379 203.375C672.806 202.161 672.235 200.949 671.662 199.735C671.125 199.988 670.59 200.24 670.053 200.494C669.202 198.709 668.292 196.958 667.327 195.235C666.79 195.489 666.255 195.741 665.718 195.994C665.448 195.422 665.18 194.853 664.91 194.281C664.373 194.534 663.838 194.787 663.301 195.04C662.998 194.398 662.695 193.755 662.392 193.113C661.281 190.757 660.17 188.402 659.059 186.047C660.131 185.541 661.205 185.034 662.277 184.529C661.065 181.517 659.719 178.574 658.237 175.702C657.595 175.759 656.991 175.955 656.426 176.294C656.156 175.723 655.888 175.153 655.618 174.581C655.081 174.835 654.546 175.087 654.009 175.34C653.706 174.698 653.403 174.056 653.1 173.413C650.888 174.457 648.675 175.5 646.463 176.544C646.193 175.972 645.924 175.402 645.655 174.831C645.051 175.115 644.448 175.4 643.845 175.685C643.575 175.113 643.306 174.543 643.037 173.971C642.433 174.256 641.83 174.541 641.226 174.825C640.924 174.183 640.621 173.541 640.318 172.898C639.848 173.119 639.379 173.341 638.91 173.562C638.64 172.99 638.371 172.421 638.102 171.849C637.498 172.134 636.895 172.418 636.291 172.703C635.753 171.562 635.214 170.418 634.675 169.277C633.57 169.712 632.462 170.145 631.356 170.581C630.818 169.439 630.279 168.296 629.74 167.155C630.21 166.933 630.679 166.712 631.148 166.491C630.879 165.919 630.61 165.349 630.34 164.778C629.871 164.999 629.402 165.22 628.932 165.442C627.805 163.002 626.593 160.608 625.297 158.256C624.761 158.509 624.225 158.762 623.688 159.015C623.152 159.268 622.616 159.521 622.079 159.774C618.982 153.207 615.885 146.642 612.788 140.074C611.946 138.291 611.104 136.505 610.263 134.721C609.726 134.974 609.19 135.227 608.654 135.48C608.384 134.908 608.115 134.339 607.846 133.767C607.242 134.052 606.639 134.336 606.036 134.621C605.766 134.049 605.497 133.479 605.228 132.908C604.122 133.343 603.014 133.776 601.908 134.211C601.639 133.64 601.37 133.07 601.1 132.498C600.497 132.783 599.894 133.068 599.29 133.352C598.15 133.89 597.011 134.427 595.871 134.965C595.601 134.393 595.333 133.824 595.063 133.252C593.387 134.042 591.711 134.833 590.035 135.624C589.498 135.877 588.962 136.13 588.426 136.383C588.123 135.74 587.82 135.098 587.517 134.455C586.98 134.708 586.444 134.961 585.908 135.214C585.638 134.643 585.369 134.073 585.1 133.501C583.96 134.039 582.82 134.576 581.681 135.114C581.411 134.542 581.142 133.973 580.873 133.401C580.248 132.212 579.608 131.029 578.954 129.856C578.485 130.077 578.016 130.298 577.547 130.52C577.277 129.948 577.008 129.378 576.739 128.807C574.465 129.903 572.152 130.907 569.799 131.818C569.564 131.319 569.327 130.818 569.092 130.319C567.35 130.96 565.64 131.68 563.963 132.477C563.426 132.73 562.89 132.983 562.354 133.236C562.084 132.664 561.815 132.094 561.546 131.523C561.276 130.951 561.007 130.381 560.738 129.81C560.201 130.063 559.665 130.316 559.129 130.569C557.984 128.142 556.839 125.714 555.695 123.288C554.555 123.826 553.415 124.363 552.276 124.901C552.006 124.329 551.737 123.76 551.468 123.188C550.931 123.441 550.395 123.694 549.859 123.947C549.589 123.375 549.32 122.806 549.051 122.234C547.302 123.053 545.526 123.805 543.72 124.486C543.451 123.915 543.182 123.345 542.912 122.773C542.376 123.026 541.84 123.279 541.303 123.532C541.034 122.96 540.765 122.391 540.495 121.819C538.819 122.61 537.143 123.4 535.467 124.191C534.356 121.835 533.245 119.48 532.134 117.125C532.67 116.872 533.207 116.619 533.743 116.366C533.17 115.152 532.599 113.94 532.026 112.725C531.756 112.154 531.488 111.584 531.218 111.012C530.377 109.229 529.535 107.443 528.693 105.659C528.157 105.912 527.621 106.165 527.084 106.418C526.209 104.562 525.334 102.707 524.458 100.851C523.922 101.104 523.386 101.357 522.849 101.61C522.58 101.039 522.311 100.468 522.041 99.8968C521.438 100.181 520.834 100.466 520.231 100.751C519.962 100.179 519.692 99.6086 519.423 99.0375C518.256 99.5199 517.083 99.9863 515.903 100.436C515.667 99.9366 515.432 99.4368 515.196 98.9372C513.513 99.72 511.803 100.439 510.067 101.095C509.797 100.524 509.528 99.9528 509.259 99.3818C504.767 101.5 500.275 103.619 495.783 105.738C495.246 105.991 494.71 106.244 494.174 106.497C493.904 105.926 493.635 105.355 493.366 104.784C492.829 105.037 492.293 105.29 491.757 105.543C491.184 104.329 490.612 103.116 490.04 101.903C488.9 102.44 487.76 102.978 486.621 103.515C486.084 103.768 485.548 104.021 485.012 104.274C484.742 103.703 484.473 103.132 484.204 102.561C483.631 101.348 483.059 100.134 482.487 98.921C481.95 99.174 481.414 99.4269 480.878 99.6799C480.639 99.089 480.336 98.5338 479.969 98.0143C479.327 98.0701 478.723 98.2676 478.158 98.6066C477.923 98.107 477.687 97.6072 477.451 97.1077C476.345 97.5423 475.239 97.9768 474.132 98.4114C473.863 97.8403 473.594 97.2695 473.324 96.6984C470.442 98.0581 467.559 99.4179 464.676 100.778C464.945 101.349 465.214 101.92 465.484 102.491C463.907 102.798 463.64 103.622 464.683 104.963C463.61 105.469 462.537 105.975 461.464 106.481C461.229 105.981 460.993 105.481 460.758 104.982C458.502 100.199 456.246 95.4172 453.991 90.635C454.527 90.382 455.063 90.1291 455.6 89.8761C456.74 89.3385 457.879 88.801 459.019 88.2634C458.716 87.621 458.413 86.9786 458.11 86.3362C459.786 85.5457 461.462 84.7551 463.138 83.9646C462.869 83.3935 462.6 82.8226 462.33 82.2515C463.47 81.7139 464.61 81.1764 465.75 80.6388C464.784 78.9167 463.875 77.1639 463.024 75.3805C461.951 75.8864 460.878 76.3924 459.805 76.8983C459.502 76.2559 459.199 75.6136 458.896 74.9712C458.358 73.8292 457.819 72.6871 457.281 71.5451C458.436 71.0803 459.509 70.487 460.498 69.7657C458.68 65.6505 456.795 61.5662 454.842 57.513C462.619 53.8448 470.396 50.1766 478.173 46.5084C478.443 47.0795 478.712 47.6504 478.981 48.2215C480.657 47.4309 482.333 46.6403 484.009 45.8498C484.279 46.4209 484.548 46.9917 484.817 47.5628C486.478 46.7361 488.171 45.9811 489.896 45.2982C490.325 45.7193 490.644 46.2231 490.855 46.8093C491.927 46.3034 493 45.7973 494.073 45.2914C493.804 44.7203 493.534 44.1495 493.265 43.5784C495.477 42.5349 497.69 41.4913 499.902 40.4478C499.364 39.3059 498.825 38.1637 498.286 37.0218C504.551 34.1357 510.752 31.1234 516.891 27.985C516.621 27.4139 516.352 26.8431 516.083 26.272C516.619 26.019 517.155 25.7661 517.692 25.5131C517.119 24.2996 516.547 23.0863 515.975 21.8729C515.705 21.3018 515.436 20.7309 515.167 20.1599C516.307 19.6223 517.446 19.0847 518.586 18.5471C516.35 13.8317 514.095 9.13668 511.82 4.46211C510.634 4.76672 509.494 5.21696 508.4 5.81329C507.864 6.0663 507.327 6.31921 506.791 6.57222C506.522 6.00114 506.252 5.43028 505.983 4.8592C505.38 5.1438 504.776 5.4284 504.173 5.713C503.903 5.14192 503.634 4.57106 503.365 3.99998C502.761 4.28458 502.158 4.56918 501.555 4.85378C501.252 4.21139 500.949 3.56901 500.646 2.92663C500.176 3.14795 499.707 3.36937 499.238 3.5907C498.396 1.80637 497.554 0.021827 496.713 -1.7625C497.249 -2.01551 497.785 -2.26842 498.322 -2.52143C498.052 -3.09251 497.783 -3.66338 497.514 -4.23446C498.05 -4.48747 498.587 -4.74038 499.123 -4.9934C498.82 -5.63578 498.517 -6.27816 498.214 -6.92055C498.817 -7.20515 499.421 -7.48975 500.024 -7.77435C499.789 -8.2739 499.553 -8.77368 499.317 -9.27324C500.356 -9.85048 501.395 -10.428 502.434 -11.0052C502.165 -11.5763 501.896 -12.1472 501.626 -12.7183C502.247 -12.9386 502.783 -13.2787 503.235 -13.7388C501.114 -18.4964 498.926 -23.223 496.67 -27.9186C497.206 -28.1716 497.742 -28.4246 498.279 -28.6776C497.437 -30.4619 496.595 -32.2464 495.754 -34.0308C496.29 -34.2838 496.826 -34.5367 497.363 -34.7897C497.094 -35.3608 496.824 -35.9316 496.555 -36.5027C503.281 -39.6235 509.952 -42.8573 516.567 -46.2035C516.249 -46.7389 516.063 -47.3058 516.011 -47.9044C517.031 -48.5162 518.087 -49.0579 519.178 -49.5293C518.909 -50.1004 518.64 -50.6712 518.37 -51.2423C522.259 -53.0764 526.148 -54.9105 530.036 -56.7446C530.639 -57.0292 531.243 -57.3138 531.846 -57.5984C532.419 -56.3849 532.991 -55.1717 533.563 -53.9582C534.636 -54.4641 535.709 -54.9704 536.781 -55.4761C537.051 -54.905 537.32 -54.3341 537.589 -53.7631C538.73 -54.3009 539.868 -54.8379 541.008 -55.3758C541.278 -54.8047 541.547 -54.2338 541.816 -53.6628C545.169 -55.2442 548.52 -56.8247 551.873 -58.4061C551.604 -58.9772 551.334 -59.5481 551.065 -60.1191C551.602 -60.3724 552.137 -60.6248 552.674 -60.8781C552.405 -61.4491 552.135 -62.02 551.866 -62.5911C552.469 -62.8757 553.073 -63.1603 553.676 -63.4449C552.835 -65.2292 551.993 -67.0138 551.151 -68.7981C551.709 -69.0182 552.227 -69.3063 552.71 -69.6641C552.658 -70.2631 552.472 -70.8297 552.154 -71.3649C552.622 -71.586 553.093 -71.8079 553.561 -72.029C552.142 -75.7223 550.458 -79.2912 548.512 -82.7354C548.012 -82.4294 547.475 -82.2636 546.902 -82.238C546.264 -83.3304 545.691 -84.4562 545.186 -85.6166C549.633 -87.8183 554.126 -89.9376 558.661 -91.9727C558.358 -92.6151 558.055 -93.2575 557.752 -93.8998C558.29 -94.1531 558.825 -94.4055 559.362 -94.6588C558.789 -95.8722 558.217 -97.0855 557.645 -98.2989C558.248 -98.5835 558.851 -98.8681 559.455 -99.1527C559.185 -99.7238 558.916 -100.295 558.647 -100.866C559.184 -101.119 559.719 -101.371 560.256 -101.625C558.303 -105.764 556.351 -109.904 554.398 -114.044C553.795 -113.76 553.191 -113.475 552.588 -113.19C552.857 -112.619 553.126 -112.048 553.396 -111.477C552.927 -111.256 552.457 -111.034 551.988 -110.813C550.042 -115.048 547.99 -119.227 545.828 -123.352C545.291 -123.099 544.756 -122.846 544.219 -122.593C543.95 -123.164 543.68 -123.735 543.411 -124.306C542.874 -124.053 542.339 -123.8 541.802 -123.547C540.691 -125.902 539.58 -128.258 538.469 -130.613C545.71 -134.028 552.95 -137.444 560.191 -140.859Z" fill="#C4C4C4" stroke="#C4C4C4" stroke-width="2" mask="url(#path-13-inside-1_82_1782)"/>
<path d="M590.5 56.5001C591.027 56.5001 591.478 56.3122 591.854 55.9366C592.23 55.5609 592.417 55.1099 592.417 54.5834C592.417 54.0563 592.229 53.605 591.853 53.2293C591.478 52.8536 591.026 52.6661 590.5 52.6667C589.973 52.6667 589.522 52.8546 589.146 53.2302C588.77 53.6059 588.583 54.057 588.583 54.5834C588.583 55.1105 588.771 55.5619 589.147 55.9375C589.523 56.3132 589.974 56.5007 590.5 56.5001ZM590.5 63.5438C592.449 61.7549 593.894 60.1296 594.836 58.6678C595.779 57.2061 596.25 55.9085 596.25 54.7751C596.25 53.0341 595.695 51.6087 594.584 50.499C593.474 49.3892 592.113 48.8341 590.5 48.8334C588.887 48.8334 587.525 49.3886 586.415 50.499C585.304 51.6094 584.749 53.0347 584.75 54.7751C584.75 55.9091 585.221 57.207 586.164 58.6688C587.106 60.1306 588.551 61.7556 590.5 63.5438ZM590.5 66.0834C587.929 63.8952 586.008 61.8629 584.739 59.9865C583.469 58.1101 582.834 56.3729 582.833 54.7751C582.833 52.3792 583.604 50.4706 585.146 49.049C586.687 47.6275 588.472 46.9167 590.5 46.9167C592.529 46.9167 594.314 47.6275 595.855 49.049C597.397 50.4706 598.167 52.3792 598.167 54.7751C598.167 56.3723 597.532 58.1094 596.262 59.9865C594.991 61.8636 593.071 63.8959 590.5 66.0834Z" fill="#333333"/>
<path d="M603.008 53.8H606.912C609.216 53.8 610.832 55.432 610.832 57.48C610.832 59.544 609.216 61.176 606.912 61.176H605.28V65H603.008V53.8ZM605.28 59.288H606.672C607.744 59.288 608.56 58.552 608.56 57.496C608.56 56.472 607.744 55.736 606.672 55.736H605.28V59.288ZM615.874 65.208C613.682 65.208 612.114 63.784 612.114 61.736V56.904H614.354V61.576C614.354 62.616 614.994 63.224 615.874 63.224C616.754 63.224 617.378 62.616 617.378 61.576V56.904H619.618V61.736C619.618 63.784 618.066 65.208 615.874 65.208ZM623.668 65H621.428V56.888H623.668V58.168C624.068 57.32 625.012 56.792 626.292 56.792H626.596V58.92H625.892C624.5 58.92 623.668 59.752 623.668 61.528V65ZM634.378 57.16L636.138 62.12L637.754 56.904H640.106L637.354 65.048H635.194L633.53 60.264L631.866 65.048H629.706L626.954 56.904H629.306L630.922 62.12L632.682 57.16H634.378ZM644.85 65.208C642.354 65.208 640.418 63.32 640.418 60.936C640.418 58.568 642.354 56.696 644.85 56.696C647.346 56.696 649.282 58.568 649.282 60.936C649.282 63.32 647.346 65.208 644.85 65.208ZM644.85 63.208C646.082 63.208 647.074 62.216 647.074 60.936C647.074 59.672 646.082 58.696 644.85 58.696C643.602 58.696 642.626 59.672 642.626 60.936C642.626 62.216 643.602 63.208 644.85 63.208ZM655.189 60.712L658.533 65H655.829L652.965 61.176V65H650.725V53.64H652.965V60.408L655.701 56.904H658.293L655.189 60.712ZM662.977 65.208C660.305 65.208 658.449 63.32 658.449 60.936C658.449 58.52 660.337 56.712 662.817 56.712C665.297 56.712 667.121 58.536 667.121 60.92C667.121 61.208 667.089 61.448 667.041 61.688H660.641C660.753 62.568 661.649 63.368 662.961 63.368C664.001 63.368 664.737 62.904 665.169 62.264L666.769 63.224C666.065 64.472 664.673 65.208 662.977 65.208ZM660.641 60.04H665.009C664.849 59.288 664.017 58.536 662.817 58.536C661.649 58.536 660.801 59.288 660.641 60.04ZM670.793 65H668.553V56.888H670.793V58.168C671.193 57.32 672.137 56.792 673.417 56.792H673.721V58.92H673.017C671.625 58.92 670.793 59.752 670.793 61.528V65ZM678.335 56.904H680.111V58.76H678.335V65H676.095V58.76H674.319V56.904H676.095V54.36H678.335V56.904ZM685.147 65.208C682.651 65.208 680.715 63.32 680.715 60.936C680.715 58.568 682.651 56.696 685.147 56.696C687.643 56.696 689.579 58.568 689.579 60.936C689.579 63.32 687.643 65.208 685.147 65.208ZM685.147 63.208C686.379 63.208 687.371 62.216 687.371 60.936C687.371 59.672 686.379 58.696 685.147 58.696C683.899 58.696 682.923 59.672 682.923 60.936C682.923 62.216 683.899 63.208 685.147 63.208Z" fill="#333333"/>
</g>
</svg>
